<?xml version="1.0" encoding="UTF-8"?>
<!DOCTYPE svg PUBLIC "-//W3C//DTD SVG 1.1//EN" "http://www.w3.org/Graphics/SVG/1.1/DTD/svg11.dtd">
<svg xmlns="http://www.w3.org/2000/svg" version="1.1" width="563px" height="137px" style="shape-rendering:geometricPrecision; text-rendering:geometricPrecision; image-rendering:optimizeQuality; fill-rule:evenodd; clip-rule:evenodd" xmlns:xlink="http://www.w3.org/1999/xlink">
<g><path style="opacity:0.997" fill="#83b819" d="M 63.5,-0.5 C 86.1667,-0.5 108.833,-0.5 131.5,-0.5C 143.193,0.791131 153.86,4.9578 163.5,12C 170.271,19.5899 173.105,28.4232 172,38.5C 188.958,15.2688 211.791,2.26875 240.5,-0.5C 255.5,-0.5 270.5,-0.5 285.5,-0.5C 289.961,0.823506 293.461,3.49017 296,7.5C 296.833,12.6674 297.667,17.8341 298.5,23C 298.561,24.7106 297.894,26.044 296.5,27C 281.53,26.0472 266.53,25.7139 251.5,26C 223.655,27.2019 205.822,41.0352 198,67.5C 196.186,73.7146 195.02,80.0479 194.5,86.5C 194.289,98.1225 199.956,104.623 211.5,106C 219.27,107.394 227.103,108.227 235,108.5C 249.161,107.65 263.328,106.984 277.5,106.5C 272.932,69.0223 285.599,38.8556 315.5,16C 330.176,7.38733 345.843,1.88733 362.5,-0.5C 377.5,-0.5 392.5,-0.5 407.5,-0.5C 418.769,0.866991 429.436,4.36699 439.5,10C 445.542,14.7123 449.042,20.879 450,28.5C 463.775,11.362 481.609,1.69536 503.5,-0.5C 519.833,-0.5 536.167,-0.5 552.5,-0.5C 556.383,0.447371 559.717,2.44737 562.5,5.5C 562.5,8.5 562.5,11.5 562.5,14.5C 561.067,17.2823 559.9,20.2823 559,23.5C 557.833,24.6667 556.667,25.8333 555.5,27C 544.325,27.6064 533.158,27.4397 522,26.5C 513.333,26.5827 504.833,27.7494 496.5,30C 489.903,32.2634 485.736,36.7634 484,43.5C 475.667,72.8333 467.333,102.167 459,131.5C 457.681,133.487 455.848,134.654 453.5,135C 442.833,135.667 432.167,135.667 421.5,135C 417.705,133.936 416.539,131.436 418,127.5C 425.464,103.965 432.131,80.2982 438,56.5C 428.091,66.3876 416.258,72.8876 402.5,76C 373.309,81.1489 343.976,85.3156 314.5,88.5C 314.823,101.325 321.489,108.158 334.5,109C 359.194,110.705 383.861,110.205 408.5,107.5C 413.723,106.495 415.889,108.495 415,113.5C 413.595,119.382 411.595,125.049 409,130.5C 404.249,133.803 399.082,135.803 393.5,136.5C 370.167,136.5 346.833,136.5 323.5,136.5C 307.473,135.07 293.973,128.404 283,116.5C 282.861,126.299 278.028,132.133 268.5,134C 261.351,134.837 254.351,135.67 247.5,136.5C 233.833,136.5 220.167,136.5 206.5,136.5C 192.68,135.503 180.013,131.003 168.5,123C 161.22,115.607 156.72,106.774 155,96.5C 152.333,105.167 149.667,113.833 147,122.5C 146.215,124.286 145.049,125.786 143.5,127C 139.167,129.584 134.5,131.251 129.5,132C 116.395,133.908 103.395,135.408 90.5,136.5C 76.5,136.5 62.5,136.5 48.5,136.5C 38.0803,135.407 27.747,133.241 17.5,130C 9.34875,126.676 3.34875,121.176 -0.5,113.5C -0.5,108.167 -0.5,102.833 -0.5,97.5C 5.32567,81.1794 16.659,70.3461 33.5,65C 40.6626,62.376 47.996,60.376 55.5,59C 79.1794,55.4151 102.846,51.7484 126.5,48C 131.764,47.0982 134.098,43.9315 133.5,38.5C 133.649,34.9651 132.316,32.1317 129.5,30C 119.523,25.4779 109.023,23.6445 98,24.5C 78.6095,25.0452 59.2761,26.3786 40,28.5C 35.5278,28.8106 33.8611,26.8106 35,22.5C 36.4696,17.7574 38.1363,13.0907 40,8.5C 42.559,5.46856 45.7257,3.30189 49.5,2C 54.3146,1.1966 58.9813,0.363267 63.5,-0.5 Z M 361.5,23.5 C 371.172,23.3335 380.839,23.5002 390.5,24C 397.692,24.1704 403.859,26.6704 409,31.5C 410.984,37.8751 409.151,43.0418 403.5,47C 394.757,51.8032 385.423,54.8032 375.5,56C 356.852,58.831 338.185,61.1643 319.5,63C 322.501,50.3268 328.835,39.6602 338.5,31C 345.865,27.1552 353.532,24.6552 361.5,23.5 Z M 123.5,71.5 C 120.159,83.1933 116.659,94.8599 113,106.5C 112.326,107.578 111.326,108.245 110,108.5C 92.1838,110.79 74.3504,110.956 56.5,109C 50.0641,108.416 44.5641,105.916 40,101.5C 38.2477,90.8892 42.7477,84.0559 53.5,81C 76.7481,77.1774 100.081,74.0107 123.5,71.5 Z"/></g>
</svg>
