<?xml version="1.0" standalone="no"?>
<!DOCTYPE svg PUBLIC "-//W3C//DTD SVG 20010904//EN"
 "http://www.w3.org/TR/2001/REC-SVG-20010904/DTD/svg10.dtd">
<svg version="1.0" xmlns="http://www.w3.org/2000/svg"
 width="599.000000pt" height="171.000000pt" viewBox="0 0 599.000000 171.000000"
 preserveAspectRatio="xMidYMid meet">

<g transform="translate(0.000000,171.000000) scale(0.100000,-0.100000)"
fill="#000000" stroke="none">
<path d="M2947 1618 c-236 -231 -422 -608 -556 -1123 -21 -82 -41 -143 -44
-135 -3 8 -20 67 -36 130 -39 146 -105 344 -164 487 -47 114 -104 233 -112
233 -2 0 -29 -45 -60 -99 l-56 -99 50 -80 c108 -172 194 -373 301 -697 35
-104 66 -194 70 -198 4 -5 38 82 74 192 152 465 307 762 548 1049 l78 92 0
160 c0 93 -4 160 -9 160 -6 0 -43 -33 -84 -72z"/>
<path d="M505 1072 l-70 -4 -190 -262 c-104 -145 -188 -267 -187 -271 1 -5 13
-9 27 -8 14 1 51 1 83 2 l59 1 65 93 c36 50 91 130 123 177 32 47 66 95 76
108 17 22 17 22 165 -178 l148 -200 93 0 92 0 -44 63 c-25 34 -76 105 -115
157 -38 52 -106 145 -151 207 -45 61 -86 113 -93 115 -6 2 -42 2 -81 0z"/>
<path d="M3006 1028 c-25 -29 -46 -56 -46 -59 0 -4 29 -47 65 -95 l66 -89
-138 -3 -138 -3 -45 -66 c-25 -36 -46 -69 -48 -72 -1 -3 106 -5 237 -3 l240 3
42 -56 c38 -51 45 -55 83 -56 22 0 62 -2 89 -3 26 -1 47 0 47 2 0 7 -375 518
-400 545 -4 5 -28 -16 -54 -45z"/>
<path d="M1070 800 l0 -270 321 0 c437 0 412 -15 417 250 4 202 -3 241 -51
270 -30 19 -53 20 -359 20 l-328 0 0 -270z m590 0 l0 -129 -215 0 -215 0 0
129 0 130 215 0 215 0 0 -130z"/>
<path d="M3530 800 l0 -270 75 0 75 0 2 179 3 179 200 -179 200 -179 102 0
103 0 0 270 0 270 -75 0 -75 0 0 -185 c0 -102 -3 -185 -6 -185 -3 0 -99 83
-212 185 l-207 185 -92 0 -93 0 0 -270z"/>
<path d="M4483 1055 c-51 -22 -57 -44 -61 -220 -4 -181 5 -233 48 -277 l28
-28 316 0 316 0 0 75 0 75 -275 0 -275 0 0 125 0 125 275 0 275 0 0 70 0 70
-307 0 c-239 -1 -315 -4 -340 -15z"/>
<path d="M5270 995 l0 -75 345 0 345 0 0 75 0 75 -345 0 -345 0 0 -75z"/>
<path d="M5270 695 l0 -165 345 0 345 0 0 70 0 70 -276 0 -275 0 3 33 3 32
168 3 167 2 0 60 0 60 -240 0 -240 0 0 -165z"/>
<path d="M4045 288 c-8 -28 -45 -200 -45 -214 0 -19 82 -19 120 1 38 19 70 82
70 135 0 58 -33 90 -95 90 -28 0 -47 -5 -50 -12z m89 -44 c17 -45 -6 -125 -39
-138 -39 -15 -43 1 -24 97 10 49 15 57 34 57 13 0 26 -7 29 -16z"/>
<path d="M4325 288 c-8 -23 -45 -197 -45 -213 0 -21 37 -19 44 3 8 27 46 201
46 212 0 14 -40 12 -45 -2z"/>
<path d="M4533 285 c-38 -16 -59 -46 -72 -103 -20 -94 36 -143 127 -111 24 8
31 18 37 47 3 20 8 45 11 55 5 14 -2 17 -40 17 -33 0 -46 -4 -46 -14 0 -7 9
-16 20 -19 16 -4 18 -10 12 -28 -15 -38 -38 -47 -63 -23 -18 18 -20 29 -14 63
4 22 16 52 27 67 19 23 26 26 64 20 32 -4 43 -2 48 9 12 32 -55 45 -111 20z"/>
<path d="M4760 203 c-12 -54 -24 -108 -27 -120 -4 -19 -1 -23 19 -23 23 0 26
6 48 107 12 60 25 114 27 120 3 8 -4 13 -20 13 -24 0 -27 -6 -47 -97z"/>
<path d="M4926 284 c-9 -23 -8 -24 17 -24 13 0 26 -2 29 -5 3 -3 -3 -43 -13
-88 -24 -106 -24 -109 3 -105 20 3 25 14 43 98 19 90 21 95 48 98 15 2 32 12
37 23 10 18 7 19 -74 19 -67 0 -85 -3 -90 -16z"/>
<path d="M5194 213 c-26 -49 -53 -98 -60 -110 -19 -31 -17 -43 6 -43 12 0 26
12 35 30 13 24 22 30 50 30 29 0 34 -3 37 -27 2 -21 9 -29 27 -31 23 -4 24 -2
18 45 -3 26 -9 81 -13 121 -6 67 -8 72 -30 72 -19 0 -32 -16 -70 -87z m66 -29
c0 -26 -4 -34 -18 -34 -29 0 -32 9 -15 46 20 40 33 35 33 -12z"/>
<path d="M5455 288 c-8 -23 -45 -197 -45 -213 0 -22 115 -22 124 1 9 23 8 24
-24 24 -17 0 -33 6 -36 14 -3 8 1 49 10 91 9 43 16 81 16 86 0 14 -40 11 -45
-3z"/>
<path d="M5705 288 c-31 -16 -45 -39 -45 -70 0 -24 7 -32 45 -48 50 -21 56
-37 24 -65 -17 -16 -24 -17 -52 -7 -26 10 -34 9 -46 -3 -21 -20 -9 -28 52 -33
46 -4 57 -1 85 23 24 20 32 35 32 60 0 36 -12 50 -53 60 -36 10 -46 34 -21 52
18 13 30 13 65 -1 21 -9 36 24 17 36 -18 11 -79 9 -103 -4z"/>
</g>
</svg>
