<?xml version="1.0" encoding="UTF-8"?>
<!DOCTYPE svg PUBLIC "-//W3C//DTD SVG 1.1//EN" "http://www.w3.org/Graphics/SVG/1.1/DTD/svg11.dtd">
<svg xmlns="http://www.w3.org/2000/svg" version="1.1" width="563px" height="111px" style="shape-rendering:geometricPrecision; text-rendering:geometricPrecision; image-rendering:optimizeQuality; fill-rule:evenodd; clip-rule:evenodd" xmlns:xlink="http://www.w3.org/1999/xlink">
<g><path style="opacity:0.987" fill="#00539b" d="M 71.5,-0.5 C 91.5,-0.5 111.5,-0.5 131.5,-0.5C 131.334,5.84209 131.5,12.1754 132,18.5C 136.724,9.2485 143.89,2.91517 153.5,-0.5C 189.5,-0.5 225.5,-0.5 261.5,-0.5C 261.5,9.5 261.5,19.5 261.5,29.5C 191.166,29.6667 120.833,29.5 50.5,29C 55.7916,20.9178 60.9583,12.7511 66,4.5C 67.8119,2.69974 69.6452,1.03308 71.5,-0.5 Z"/></g>
<g><path style="opacity:0.98" fill="#00539b" d="M 361.5,-0.5 C 372.167,-0.5 382.833,-0.5 393.5,-0.5C 393.334,6.17499 393.5,12.8417 394,19.5C 398.825,10.1703 405.992,3.5036 415.5,-0.5C 453.833,-0.5 492.167,-0.5 530.5,-0.5C 530.5,9.5 530.5,19.5 530.5,29.5C 474.167,29.5 417.833,29.5 361.5,29.5C 361.5,19.5 361.5,9.5 361.5,-0.5 Z"/></g>
<g><path style="opacity:0.505" fill="#03519a" d="M 562.5,7.5 C 562.5,11.5 562.5,15.5 562.5,19.5C 558.292,26.1147 552.292,28.2814 544.5,26C 537.163,20.9956 535.33,14.4956 539,6.5C 542.777,0.956571 547.944,-0.876763 554.5,1C 557.331,3.00068 559.997,5.16735 562.5,7.5 Z M 556.5,21.5 C 551.505,25.6148 546.672,25.2815 542,20.5C 537.328,8.35072 541.495,2.85072 554.5,4C 560.025,6.91881 561.858,11.4188 560,17.5C 559.34,19.3237 558.173,20.657 556.5,21.5 Z M 548.5,9.5 C 555.167,10.5 555.167,11.5 548.5,12.5C 548.5,11.5 548.5,10.5 548.5,9.5 Z"/></g>
<g><path style="opacity:1" fill="#00539b" d="M 264.5,-0.5 C 274.833,-0.5 285.167,-0.5 295.5,-0.5C 295.5,9.5 295.5,19.5 295.5,29.5C 285.167,29.5 274.833,29.5 264.5,29.5C 264.5,19.5 264.5,9.5 264.5,-0.5 Z"/></g>
<g><path style="opacity:0.699" fill="#025399" d="M 556.5,21.5 C 555.5,21.5 554.5,21.5 553.5,21.5C 554.167,17.5 552.5,15.8333 548.5,16.5C 548.5,18.1667 548.5,19.8333 548.5,21.5C 547.167,21.5 545.833,21.5 544.5,21.5C 544.5,16.5 544.5,11.5 544.5,6.5C 548.106,6.21083 551.606,6.54416 555,7.5C 555.781,8.72865 556.281,10.062 556.5,11.5C 556.024,14.7395 556.024,18.0729 556.5,21.5 Z M 548.5,9.5 C 548.5,10.5 548.5,11.5 548.5,12.5C 555.167,11.5 555.167,10.5 548.5,9.5 Z"/></g>
<g><path style="opacity:0.981" fill="#00539b" d="M 35.5,110.5 C 23.5,110.5 11.5,110.5 -0.5,110.5C -0.5,109.5 -0.5,108.5 -0.5,107.5C 16.2672,82.1505 32.9339,56.6505 49.5,31C 60.8823,31.0596 72.2156,31.8929 83.5,33.5C 82.6481,36.2234 81.4814,38.89 80,41.5C 64.9433,64.3832 50.11,87.3832 35.5,110.5 Z"/></g>
<g><path style="opacity:0.976" fill="#00539b" d="M 506.5,110.5 C 468.167,110.5 429.833,110.5 391.5,110.5C 391.666,104.491 391.499,98.4908 391,92.5C 386.456,101.177 379.623,107.177 370.5,110.5C 342.833,110.5 315.167,110.5 287.5,110.5C 276.43,105.927 268.93,97.9272 265,86.5C 261.746,98.5843 254.246,106.584 242.5,110.5C 194.833,110.5 147.167,110.5 99.5,110.5C 99.5,85.1667 99.5,59.8333 99.5,34.5C 109.456,35.7184 119.456,36.3851 129.5,36.5C 129.5,51.1667 129.5,65.8333 129.5,80.5C 164.502,80.6667 199.502,80.5 234.5,80C 238.085,77.4719 238.418,74.4719 235.5,71C 209.231,67.9498 182.898,65.6165 156.5,64C 142.239,60.5732 133.572,51.7399 130.5,37.5C 167.535,39.8363 204.535,42.6696 241.5,46C 251.755,49.2507 259.255,55.7507 264,65.5C 264.5,53.8381 264.667,42.1714 264.5,30.5C 274.846,31.0672 285.18,31.7339 295.5,32.5C 295.333,46.504 295.5,60.504 296,74.5C 296.833,77.3333 298.667,79.1667 301.5,80C 320.167,80.6667 338.833,80.6667 357.5,80C 359.81,78.3626 361.31,76.196 362,73.5C 362.5,61.5046 362.667,49.5046 362.5,37.5C 408.183,39.6233 453.85,42.1233 499.5,45C 522.497,49.499 532.331,63.3324 529,86.5C 525.746,98.5843 518.246,106.584 506.5,110.5 Z M 393.5,41.5 C 398.222,53.3777 406.888,60.8777 419.5,64C 446.226,65.672 472.892,68.0054 499.5,71C 502.752,75.4057 501.752,78.4057 496.5,80C 462.168,80.5 427.835,80.6667 393.5,80.5C 393.5,67.5 393.5,54.5 393.5,41.5 Z"/></g>
</svg>
