<?xml version="1.0" encoding="UTF-8"?>
<!DOCTYPE svg PUBLIC "-//W3C//DTD SVG 1.1//EN" "http://www.w3.org/Graphics/SVG/1.1/DTD/svg11.dtd">
<svg xmlns="http://www.w3.org/2000/svg" version="1.1" width="135px" height="78px" style="shape-rendering:geometricPrecision; text-rendering:geometricPrecision; image-rendering:optimizeQuality; fill-rule:evenodd; clip-rule:evenodd" xmlns:xlink="http://www.w3.org/1999/xlink">
<g><path style="opacity:0.916" fill="#f95f0d" d="M 65.5,8.5 C 71.0518,8.91062 73.2184,11.9106 72,17.5C 68.4772,21.7014 65.4772,21.3681 63,16.5C 62.3875,13.3893 63.2209,10.7226 65.5,8.5 Z"/></g>
<g><path style="opacity:0.953" fill="#fb610e" d="M 60.5,24.5 C 60.5,25.1667 60.5,25.8333 60.5,26.5C 59.5655,27.5676 59.2322,28.901 59.5,30.5C 59.5,31.1667 59.5,31.8333 59.5,32.5C 58.3121,33.6843 57.1455,33.6843 56,32.5C 54.9609,33.7101 53.7942,34.7101 52.5,35.5C 47.9628,37.3673 45.2961,40.7007 44.5,45.5C 41.0784,50.9149 39.7451,56.9149 40.5,63.5C 46.9793,64.2118 52.146,61.8785 56,56.5C 56.6667,57.8333 56.6667,59.1667 56,60.5C 50.9222,66.792 44.4222,69.292 36.5,68C 31.0292,62.674 30.0292,56.5073 33.5,49.5C 33.5,48.8333 33.5,48.1667 33.5,47.5C 35.315,43.2042 37.6483,39.2042 40.5,35.5C 43.2085,32.7915 45.5419,29.7915 47.5,26.5C 49.1376,25.343 50.8043,24.1764 52.5,23C 52.0426,22.586 51.7093,22.086 51.5,21.5C 54.7844,20.343 58.1177,20.1764 61.5,21C 60.6634,22.0113 60.33,23.1779 60.5,24.5 Z"/></g>
<g><path style="opacity:0.947" fill="#8072c1" d="M 33.5,47.5 C 33.5,48.1667 33.5,48.8333 33.5,49.5C 29.9703,50.0111 26.8037,49.3444 24,47.5C 19.4785,50.3119 15.1451,49.9786 11,46.5C 8.10843,38.0262 11.2751,33.5262 20.5,33C 9.73267,33.1378 8.73267,30.1378 17.5,24C 22.1816,22.1276 26.8482,22.1276 31.5,24C 33.0488,25.214 34.2155,26.714 35,28.5C 34.836,34.8349 34.336,41.1682 33.5,47.5 Z M 21.5,30.5 C 22.9778,30.238 24.3112,30.5713 25.5,31.5C 24.8333,31.8333 24.1667,32.1667 23.5,32.5C 22.2867,32.2528 21.62,31.5862 21.5,30.5 Z M 23.5,38.5 C 24.6527,39.3132 24.6527,40.3132 23.5,41.5C 22.1667,42.8333 20.8333,42.8333 19.5,41.5C 20.6243,40.1408 21.9577,39.1408 23.5,38.5 Z"/></g>
<g><path style="opacity:0.928" fill="#8171c1" d="M 69.5,31.5 C 70.209,32.404 71.209,32.7373 72.5,32.5C 72.741,35.999 71.9076,36.3323 70,33.5C 69.6012,33.7284 69.4346,34.0618 69.5,34.5C 68.1667,35.1667 68.1667,35.8333 69.5,36.5C 69.7678,38.099 69.4345,39.4324 68.5,40.5C 67.7948,43.2281 67.1281,46.0614 66.5,49C 59.8333,49.6667 53.1667,49.6667 46.5,49C 45.695,47.8873 45.0283,46.7206 44.5,45.5C 45.2961,40.7007 47.9628,37.3673 52.5,35.5C 53.7019,39.578 55.2019,43.578 57,47.5C 57.9744,42.5108 58.8077,37.5108 59.5,32.5C 59.5,31.8333 59.5,31.1667 59.5,30.5C 60.4345,29.4324 60.7678,28.099 60.5,26.5C 60.5,25.8333 60.5,25.1667 60.5,24.5C 63.4882,22.727 66.8215,22.0604 70.5,22.5C 70.2962,25.5176 69.9629,28.5176 69.5,31.5 Z"/></g>
<g><path style="opacity:0.957" fill="#8072c0" d="M 93.5,30.5 C 93.3359,33.1873 93.5026,35.854 94,38.5C 94.6543,37.3044 95.1543,37.3044 95.5,38.5C 95.1373,39.1835 94.8039,39.8501 94.5,40.5C 90.1563,50.006 83.1563,52.506 73.5,48C 70.7956,46.1401 69.1289,43.6401 68.5,40.5C 69.4345,39.4324 69.7678,38.099 69.5,36.5C 69.5,35.8333 69.5,35.1667 69.5,34.5C 69.4346,34.0618 69.6012,33.7284 70,33.5C 71.9076,36.3323 72.741,35.999 72.5,32.5C 71.209,32.7373 70.209,32.404 69.5,31.5C 75.2921,22.8466 82.6254,21.0133 91.5,26C 92.5822,27.3297 93.2488,28.8297 93.5,30.5 Z M 80.5,31.5 C 82.9582,31.2275 84.6249,32.2275 85.5,34.5C 84.8108,36.444 84.3108,38.444 84,40.5C 80.4807,43.2803 78.6474,42.2803 78.5,37.5C 78.6113,35.2857 79.278,33.2857 80.5,31.5 Z"/></g>
<g><path style="opacity:0.969" fill="#8072c0" d="M 94.5,40.5 C 94.8039,39.8501 95.1373,39.1835 95.5,38.5C 95.1543,37.3044 94.6543,37.3044 94,38.5C 93.5026,35.854 93.3359,33.1873 93.5,30.5C 94.2216,30.9175 94.7216,31.5842 95,32.5C 98.6186,24.1072 104.785,21.2739 113.5,24C 116,25.1667 117.833,27 119,29.5C 118.797,25.3629 120.63,23.8629 124.5,25C 126.827,28.24 125.994,30.74 122,32.5C 121.333,31.8333 120.667,31.1667 120,30.5C 121.213,45.964 114.38,52.1307 99.5,49C 96.4044,46.9713 94.7377,44.138 94.5,40.5 Z M 105.5,31.5 C 108.59,30.83 110.257,31.9967 110.5,35C 110.466,38.4926 108.966,40.9926 106,42.5C 104.266,41.5335 103.432,40.0335 103.5,38C 103.875,35.7114 104.541,33.5447 105.5,31.5 Z"/></g>
<g><path style="opacity:0.999" fill="#8171bd" d="M 47.5,26.5 C 45.5419,29.7915 43.2085,32.7915 40.5,35.5C 37.8962,31.3695 36.5629,27.0362 36.5,22.5C 39.777,23.2537 43.1103,23.7537 46.5,24C 47.2524,24.6708 47.5858,25.5041 47.5,26.5 Z"/></g>
</svg>
