<?xml version="1.0" encoding="UTF-8"?>
<!DOCTYPE svg PUBLIC "-//W3C//DTD SVG 1.1//EN" "http://www.w3.org/Graphics/SVG/1.1/DTD/svg11.dtd">
<svg xmlns="http://www.w3.org/2000/svg" version="1.1" width="564px" height="317px" style="shape-rendering:geometricPrecision; text-rendering:geometricPrecision; image-rendering:optimizeQuality; fill-rule:evenodd; clip-rule:evenodd" xmlns:xlink="http://www.w3.org/1999/xlink">
<g><path style="opacity:0.991" fill="#df1119" d="M 63.5,98.5 C 86.5551,96.6045 107.555,102.105 126.5,115C 131.034,119.199 135.201,123.699 139,128.5C 139.781,129.944 139.614,131.277 138.5,132.5C 123.082,141.626 107.582,150.626 92,159.5C 91.3333,158.5 91.3333,157.5 92,156.5C 99.6667,144.5 107.333,132.5 115,120.5C 115.749,119.365 115.583,118.365 114.5,117.5C 95.6856,108.414 78.019,110.248 61.5,123C 42.4665,143.035 40.6332,164.535 56,187.5C 75.5291,207.12 97.0291,209.62 120.5,195C 124.011,190.939 127.677,187.773 131.5,185.5C 132.654,188.102 133.154,190.768 133,193.5C 116.41,210.203 96.243,218.203 72.5,217.5C 48.5719,218.03 28.4052,209.697 12,192.5C -0.212856,175.634 -2.87952,157.301 4,137.5C 10.9569,121.877 22.4569,111.044 38.5,105C 46.816,102.244 55.1494,100.078 63.5,98.5 Z"/></g>
<g><path style="opacity:0.982" fill="#df1219" d="M 273.5,118.5 C 284.239,117.919 291.572,122.586 295.5,132.5C 305.302,127.513 315.302,123.013 325.5,119C 335.52,117.927 342.354,122.094 346,131.5C 346.5,159.165 346.667,186.831 346.5,214.5C 334.5,214.5 322.5,214.5 310.5,214.5C 310.667,190.164 310.5,165.831 310,141.5C 304.837,135.938 300.171,136.271 296,142.5C 295.5,166.498 295.333,190.498 295.5,214.5C 283.5,214.5 271.5,214.5 259.5,214.5C 259.5,188.833 259.5,163.167 259.5,137.5C 251.804,137.831 244.138,137.497 236.5,136.5C 248.802,130.181 261.136,124.181 273.5,118.5 Z"/></g>
<g><path style="opacity:0.998" fill="#df1119" d="M 488.5,118.5 C 499.231,117.908 506.564,122.575 510.5,132.5C 521.335,126.826 532.501,122.16 544,118.5C 552.072,119.04 557.739,123.04 561,130.5C 561.5,158.498 561.667,186.498 561.5,214.5C 549.5,214.5 537.5,214.5 525.5,214.5C 525.667,190.164 525.5,165.831 525,141.5C 519.919,136.014 515.252,136.347 511,142.5C 510.5,166.498 510.333,190.498 510.5,214.5C 498.5,214.5 486.5,214.5 474.5,214.5C 474.5,188.833 474.5,163.167 474.5,137.5C 466.804,137.831 459.138,137.497 451.5,136.5C 463.771,130.197 476.105,124.197 488.5,118.5 Z"/></g>
<g><path style="opacity:0.992" fill="#df1119" d="M 197.5,118.5 C 212.578,117.956 223.078,124.622 229,138.5C 235.449,163.8 242.283,188.966 249.5,214C 237.171,214.5 224.838,214.667 212.5,214.5C 212.124,209.329 210.958,204.329 209,199.5C 197.167,213.925 182,219.425 163.5,216C 148.746,212.888 139.58,204.055 136,189.5C 136.452,169.034 146.952,157.201 167.5,154C 178.605,152.818 188.772,155.318 198,161.5C 196.97,153.711 195.137,146.044 192.5,138.5C 177.833,137.833 163.167,137.167 148.5,136.5C 164.828,130.155 181.161,124.155 197.5,118.5 Z M 182.5,169.5 C 196.808,167.982 203.974,174.315 204,188.5C 200.091,200.145 192.258,203.978 180.5,200C 172.633,194.733 170.133,187.566 173,178.5C 175.406,174.592 178.572,171.592 182.5,169.5 Z"/></g>
<g><path style="opacity:0.992" fill="#df1119" d="M 402.5,118.5 C 433.287,117.797 451.787,132.463 458,162.5C 458.691,191.308 445.191,209.474 417.5,217C 386.537,219.355 367.37,205.522 360,175.5C 358.663,144.808 372.83,125.808 402.5,118.5 Z M 396.5,127.5 C 404.724,126.022 409.558,129.356 411,137.5C 416.422,158.022 421.922,178.522 427.5,199C 424.932,208.452 419.265,211.119 410.5,207C 409.789,205.745 408.956,204.579 408,203.5C 402.087,181.348 396.254,159.181 390.5,137C 390.729,132.625 392.729,129.458 396.5,127.5 Z"/></g>
</svg>
