<?xml version="1.0" encoding="UTF-8"?>
<!DOCTYPE svg PUBLIC "-//W3C//DTD SVG 1.1//EN" "http://www.w3.org/Graphics/SVG/1.1/DTD/svg11.dtd">
<svg xmlns="http://www.w3.org/2000/svg" version="1.1" width="773px" height="172px" style="shape-rendering:geometricPrecision; text-rendering:geometricPrecision; image-rendering:optimizeQuality; fill-rule:evenodd; clip-rule:evenodd" xmlns:xlink="http://www.w3.org/1999/xlink">
<g><path style="opacity:0.957" fill="#5f6161" d="M 135.5,25.5 C 159.858,25.1187 184.192,25.6187 208.5,27C 238.875,35.2559 254.875,55.0892 256.5,86.5C 255.556,112.259 243.556,130.759 220.5,142C 216.317,143.796 211.984,145.129 207.5,146C 183.502,146.5 159.502,146.667 135.5,146.5C 135.333,131.163 135.5,115.83 136,100.5C 146,90.5 156,80.5 166,70.5C 166.5,85.8297 166.667,101.163 166.5,116.5C 176.839,116.666 187.172,116.5 197.5,116C 220.639,111.23 229.139,97.3964 223,74.5C 218.802,66.3125 212.302,60.8125 203.5,58C 190.547,56.7657 177.547,56.099 164.5,56C 154.242,46.2463 144.576,36.0796 135.5,25.5 Z"/></g>
<g><path style="opacity:0.964" fill="#5f6262" d="M 292.5,25.5 C 322.833,25.5 353.167,25.5 383.5,25.5C 383.649,26.552 383.483,27.552 383,28.5C 373.833,37.6667 364.667,46.8333 355.5,56C 350.177,56.4994 344.844,56.666 339.5,56.5C 339.5,86.5 339.5,116.5 339.5,146.5C 328.833,146.5 318.167,146.5 307.5,146.5C 307.5,116.5 307.5,86.5 307.5,56.5C 292.818,56.8326 278.152,56.4993 263.5,55.5C 273.188,45.4794 282.855,35.4794 292.5,25.5 Z"/></g>
<g><path style="opacity:0.96" fill="#5f6161" d="M 546.5,25.5 C 574.841,25.1669 603.175,25.5002 631.5,26.5C 622.014,36.4859 612.348,46.3192 602.5,56C 584.167,56.3333 565.833,56.6667 547.5,57C 541.687,59.1281 540.187,62.9614 543,68.5C 543.75,69.1258 544.584,69.6258 545.5,70C 562.833,70.3333 580.167,70.6667 597.5,71C 615.798,73.9664 626.965,84.4664 631,102.5C 632.835,124.003 623.669,138.503 603.5,146C 572.5,146.667 541.5,146.667 510.5,146C 520.167,136.333 529.833,126.667 539.5,117C 557.833,116.667 576.167,116.333 594.5,116C 601.103,112.986 602.103,108.652 597.5,103C 580.167,102.667 562.833,102.333 545.5,102C 523.747,98.5815 512.08,85.9149 510.5,64C 512.429,41.575 524.429,28.7417 546.5,25.5 Z"/></g>
<g><path style="opacity:0.957" fill="#5f6262" d="M 67.5,26.5 C 69.0744,26.9371 70.2411,27.9371 71,29.5C 90.0706,68.2103 109.237,106.877 128.5,145.5C 116.852,146.499 105.186,146.832 93.5,146.5C 85.749,129.267 77.4156,112.267 68.5,95.5C 59.7057,112.255 51.039,129.088 42.5,146C 30.8333,146.667 19.1667,146.667 7.5,146C 27.6411,106.218 47.6411,66.3844 67.5,26.5 Z"/></g>
<g><path style="opacity:0.971" fill="#ea2031" d="M 412.5,25.5 C 442.833,25.5 473.167,25.5 503.5,25.5C 503.719,26.675 503.386,27.675 502.5,28.5C 493.5,37.5 484.5,46.5 475.5,55.5C 444.505,56.6666 413.505,56.8332 382.5,56C 392.702,45.9651 402.702,35.7984 412.5,25.5 Z"/></g>
<g><path style="opacity:0.946" fill="#5f6262" d="M 666.5,26.5 C 667.5,26.5 668.5,26.5 669.5,26.5C 669.333,49.1691 669.5,71.8358 670,94.5C 678.748,114.624 693.248,120.457 713.5,112C 721.772,106.29 726.605,98.4571 728,88.5C 728.333,77.1667 728.667,65.8333 729,54.5C 738.167,45.3333 747.333,36.1667 756.5,27C 757.448,26.5172 758.448,26.3505 759.5,26.5C 759.667,48.1692 759.5,69.8359 759,91.5C 754.796,120.368 738.629,138.535 710.5,146C 675.519,149.933 652.019,135.433 640,102.5C 637.564,86.9261 636.898,71.2594 638,55.5C 647.702,45.965 657.202,36.2984 666.5,26.5 Z"/></g>
<g><path style="opacity:0.945" fill="#ea2032" d="M 412.5,70.5 C 442.833,70.5 473.167,70.5 503.5,70.5C 503.649,71.552 503.483,72.552 503,73.5C 493.5,83 484,92.5 474.5,102C 459.333,102.167 444.167,102.333 429,102.5C 413.351,102.66 397.851,102.16 382.5,101C 392.702,90.9651 402.702,80.7984 412.5,70.5 Z"/></g>
<g><path style="opacity:0.975" fill="#e92031" d="M 411.5,116.5 C 442.174,116.167 472.841,116.5 503.5,117.5C 494.167,126.833 484.833,136.167 475.5,145.5C 444.505,146.667 413.505,146.833 382.5,146C 392.369,136.298 402.036,126.465 411.5,116.5 Z"/></g>
</svg>
