<?xml version="1.0" encoding="UTF-8"?>
<!DOCTYPE svg PUBLIC "-//W3C//DTD SVG 1.1//EN" "http://www.w3.org/Graphics/SVG/1.1/DTD/svg11.dtd">
<svg xmlns="http://www.w3.org/2000/svg" version="1.1" width="106px" height="87px" style="shape-rendering:geometricPrecision; text-rendering:geometricPrecision; image-rendering:optimizeQuality; fill-rule:evenodd; clip-rule:evenodd" xmlns:xlink="http://www.w3.org/1999/xlink">
<g><path style="opacity:0.934" fill="#017cb8" d="M 41.5,-0.5 C 48.8333,-0.5 56.1667,-0.5 63.5,-0.5C 83.8254,3.65186 97.8254,15.3185 105.5,34.5C 105.5,40.1667 105.5,45.8333 105.5,51.5C 97.8254,70.6815 83.8254,82.3481 63.5,86.5C 56.1667,86.5 48.8333,86.5 41.5,86.5C 21.1746,82.3481 7.17456,70.6815 -0.5,51.5C -0.5,45.8333 -0.5,40.1667 -0.5,34.5C 7.17456,15.3185 21.1746,3.65186 41.5,-0.5 Z M 42.5,5.5 C 58.8077,3.4093 73.4744,7.24263 86.5,17C 102.5,34.3333 102.5,51.6667 86.5,69C 72.1516,79.9179 56.1516,83.2512 38.5,79C 11.8195,71.1277 2.31948,53.9611 10,27.5C 17.905,15.8005 28.7384,8.4672 42.5,5.5 Z M 21.5,39.5 C 26.1585,39.0146 27.4919,40.848 25.5,45C 24.2068,45.49 22.8734,45.6567 21.5,45.5C 21.5,43.5 21.5,41.5 21.5,39.5 Z"/></g>
<g><path style="opacity:0.974" fill="#007db8" d="M 50.5,35.5 C 53.8573,35.2159 56.1906,36.5493 57.5,39.5C 58.4682,37.3926 58.8016,35.0593 58.5,32.5C 61.5,32.5 64.5,32.5 67.5,32.5C 67.5,36.8333 67.5,41.1667 67.5,45.5C 70.1667,45.5 72.8333,45.5 75.5,45.5C 75.5,47.8333 75.5,50.1667 75.5,52.5C 69.8333,52.5 64.1667,52.5 58.5,52.5C 58.6621,50.4727 58.4955,48.4727 58,46.5C 54.1553,49.4207 50.1553,52.0874 46,54.5C 42.2663,52.0477 38.4329,49.7143 34.5,47.5C 32.6789,49.2433 30.6789,50.7433 28.5,52C 23.1771,52.4994 17.8437,52.666 12.5,52.5C 12.5,45.8333 12.5,39.1667 12.5,32.5C 17.1785,32.3342 21.8452,32.5008 26.5,33C 29.6207,33.7261 32.2873,35.2261 34.5,37.5C 38.4752,35.3494 42.3085,33.016 46,30.5C 48.401,31.3988 49.901,33.0655 50.5,35.5 Z M 21.5,39.5 C 21.5,41.5 21.5,43.5 21.5,45.5C 22.8734,45.6567 24.2068,45.49 25.5,45C 27.4919,40.848 26.1585,39.0146 21.5,39.5 Z"/></g>
<g><path style="opacity:0.965" fill="#007db8" d="M 76.5,32.5 C 79.5,32.5 82.5,32.5 85.5,32.5C 85.5,36.8333 85.5,41.1667 85.5,45.5C 88.1667,45.5 90.8333,45.5 93.5,45.5C 93.5,47.8333 93.5,50.1667 93.5,52.5C 87.8333,52.5 82.1667,52.5 76.5,52.5C 76.5,45.8333 76.5,39.1667 76.5,32.5 Z"/></g>
</svg>
