<?xml version="1.0" encoding="UTF-8"?>
<!DOCTYPE svg PUBLIC "-//W3C//DTD SVG 1.1//EN" "http://www.w3.org/Graphics/SVG/1.1/DTD/svg11.dtd">
<svg xmlns="http://www.w3.org/2000/svg" version="1.1" width="563px" height="317px" style="shape-rendering:geometricPrecision; text-rendering:geometricPrecision; image-rendering:optimizeQuality; fill-rule:evenodd; clip-rule:evenodd" xmlns:xlink="http://www.w3.org/1999/xlink">
<g><path style="opacity:0.986" fill="#0064ac" d="M 262.5,90.5 C 278.423,88.9843 293.089,92.4843 306.5,101C 316.701,109.432 321.367,120.265 320.5,133.5C 311.5,133.5 302.5,133.5 293.5,133.5C 293.114,123.548 288.114,117.381 278.5,115C 269.75,112.491 261.417,113.491 253.5,118C 249.695,122.091 248.528,126.924 250,132.5C 251.938,135.106 254.438,136.939 257.5,138C 272.5,142.333 287.5,146.667 302.5,151C 322.856,160.888 329.689,176.721 323,198.5C 315.801,212.684 304.301,221.184 288.5,224C 273.91,226.526 259.576,225.526 245.5,221C 226.324,213.323 216.991,199.157 217.5,178.5C 226.5,178.5 235.5,178.5 244.5,178.5C 244.924,190.537 250.924,198.037 262.5,201C 273.914,203.849 284.581,202.182 294.5,196C 299.759,187.29 298.093,180.29 289.5,175C 273.395,170.308 257.395,165.308 241.5,160C 220.38,147.36 215.88,130.194 228,108.5C 237.446,98.3618 248.946,92.3618 262.5,90.5 Z"/></g>
<g><path style="opacity:0.986" fill="#0064ac" d="M 379.5,90.5 C 420.631,88.8274 443.464,108.494 448,149.5C 450.233,171.04 444.9,190.373 432,207.5C 415.61,223.477 396.11,228.977 373.5,224C 348.68,216.267 334.18,199.434 330,173.5C 325.843,149.603 330.843,127.936 345,108.5C 354.71,98.8963 366.21,92.8963 379.5,90.5 Z M 382.5,114.5 C 404.569,113.724 417.069,124.39 420,146.5C 422.688,162.214 420.022,176.881 412,190.5C 403.986,200.05 393.82,203.55 381.5,201C 372.643,198.811 366.143,193.644 362,185.5C 354.667,167.167 354.667,148.833 362,130.5C 366.423,121.894 373.257,116.561 382.5,114.5 Z"/></g>
<g><path style="opacity:0.984" fill="#0064ac" d="M 457.5,93.5 C 466.506,93.3336 475.506,93.5002 484.5,94C 502.101,121.703 518.267,150.203 533,179.5C 533.5,150.835 533.667,122.169 533.5,93.5C 541.5,93.5 549.5,93.5 557.5,93.5C 557.5,135.833 557.5,178.167 557.5,220.5C 548.475,220.832 539.475,220.498 530.5,219.5C 513.465,192.771 497.965,165.105 484,136.5C 485.233,164.462 485.733,192.462 485.5,220.5C 476.167,220.5 466.833,220.5 457.5,220.5C 457.5,178.167 457.5,135.833 457.5,93.5 Z"/></g>
<g><path style="opacity:1" fill="#0064ac" d="M 4.5,93.5 C 36.8333,93.5 69.1667,93.5 101.5,93.5C 101.5,101.833 101.5,110.167 101.5,118.5C 78.1667,118.5 54.8333,118.5 31.5,118.5C 31.5,126.833 31.5,135.167 31.5,143.5C 52.8333,143.5 74.1667,143.5 95.5,143.5C 95.5,151.833 95.5,160.167 95.5,168.5C 74.1667,168.5 52.8333,168.5 31.5,168.5C 31.5,178.833 31.5,189.167 31.5,199.5C 54.8333,199.5 78.1667,199.5 101.5,199.5C 101.5,206.5 101.5,213.5 101.5,220.5C 69.1667,220.5 36.8333,220.5 4.5,220.5C 4.5,178.167 4.5,135.833 4.5,93.5 Z"/></g>
<g><path style="opacity:0.985" fill="#0064ac" d="M 111.5,93.5 C 129.503,93.3334 147.503,93.5001 165.5,94C 201.935,95.7519 218.102,114.585 214,150.5C 208.424,167.228 196.924,177.394 179.5,181C 166.255,183.097 152.922,183.93 139.5,183.5C 139.5,195.833 139.5,208.167 139.5,220.5C 130.167,220.5 120.833,220.5 111.5,220.5C 111.5,178.167 111.5,135.833 111.5,93.5 Z M 139.5,118.5 C 148.506,118.334 157.506,118.5 166.5,119C 186.268,122.789 192.102,133.956 184,152.5C 181.441,155.531 178.274,157.698 174.5,159C 162.896,160.412 151.229,160.912 139.5,160.5C 139.5,146.5 139.5,132.5 139.5,118.5 Z"/></g>
</svg>
