<?xml version="1.0" encoding="UTF-8"?>
<!DOCTYPE svg PUBLIC "-//W3C//DTD SVG 1.1//EN" "http://www.w3.org/Graphics/SVG/1.1/DTD/svg11.dtd">
<svg xmlns="http://www.w3.org/2000/svg" version="1.1" width="263px" height="266px" style="shape-rendering:geometricPrecision; text-rendering:geometricPrecision; image-rendering:optimizeQuality; fill-rule:evenodd; clip-rule:evenodd" xmlns:xlink="http://www.w3.org/1999/xlink">
<g><path style="opacity:0.991" fill="#0096d6" d="M 124.5,-0.5 C 132.167,-0.5 139.833,-0.5 147.5,-0.5C 211.941,12.2741 250.274,50.9408 262.5,115.5C 262.5,126.833 262.5,138.167 262.5,149.5C 250.274,214.059 211.941,252.726 147.5,265.5C 140.5,265.5 133.5,265.5 126.5,265.5C 135.208,240.413 144.208,215.413 153.5,190.5C 167.488,189.667 181.488,189.167 195.5,189C 199.382,187.321 202.548,184.821 205,181.5C 214.803,153.757 224.803,126.09 235,98.5C 238.424,88.0825 235.257,80.5825 225.5,76C 206.26,75.1744 187.093,75.341 168,76.5C 145.989,138.701 123.489,200.701 100.5,262.5C 52.7386,249.375 20.9053,219.375 5,172.5C 2.97456,164.737 1.14122,157.071 -0.5,149.5C -0.5,138.167 -0.5,126.833 -0.5,115.5C 8.65807,62.36 38.3247,25.86 88.5,6C 91.1944,4.81018 93.8611,4.64351 96.5,5.5C 74.26,66.7217 51.9267,127.888 29.5,189C 38.4938,189.5 47.4938,189.666 56.5,189.5C 67.6934,157.088 79.1934,124.755 91,92.5C 98.4129,91.5192 105.913,91.1858 113.5,91.5C 102.332,124.172 90.6649,156.672 78.5,189C 87.4117,189.816 96.245,189.65 105,188.5C 116.914,156.09 128.414,123.59 139.5,91C 138.764,84.8572 135.764,80.1905 130.5,77C 119.555,75.9004 108.555,75.067 97.5,74.5C 106.312,49.3954 115.312,24.3954 124.5,-0.5 Z"/></g>
<g><path style="opacity:0.981" fill="#0095d6" d="M 188.5,91.5 C 196.196,91.1692 203.862,91.5025 211.5,92.5C 201.568,119.128 191.735,145.795 182,172.5C 174.558,173.813 167.058,173.813 159.5,172.5C 169.459,145.586 179.126,118.586 188.5,91.5 Z"/></g>
</svg>
