<?xml version="1.0" encoding="UTF-8"?>
<!DOCTYPE svg PUBLIC "-//W3C//DTD SVG 1.1//EN" "http://www.w3.org/Graphics/SVG/1.1/DTD/svg11.dtd">
<svg xmlns="http://www.w3.org/2000/svg" version="1.1" width="599px" height="133px" style="shape-rendering:geometricPrecision; text-rendering:geometricPrecision; image-rendering:optimizeQuality; fill-rule:evenodd; clip-rule:evenodd" xmlns:xlink="http://www.w3.org/1999/xlink">
<g><path style="opacity:0.948" fill="#e60011" d="M 1.5,0.5 C 10.8333,0.5 20.1667,0.5 29.5,0.5C 29.8293,34.7397 29.496,68.9064 28.5,103C 48.1638,103.5 67.8305,103.667 87.5,103.5C 87.8172,112.418 87.4839,121.251 86.5,130C 58.2613,130.828 30.0947,130.661 2,129.5C 1.50001,86.5013 1.33334,43.5013 1.5,0.5 Z"/></g>
<g><path style="opacity:0.992" fill="#e60011" d="M 243.5,28.5 C 267.111,25.9776 282.278,35.9776 289,58.5C 289.5,82.4977 289.667,106.498 289.5,130.5C 280.5,130.5 271.5,130.5 262.5,130.5C 262.944,108.788 262.444,87.1216 261,65.5C 253.119,53.3214 242.619,50.4881 229.5,57C 226.386,60.0598 223.886,63.5598 222,67.5C 221.5,88.4974 221.333,109.497 221.5,130.5C 212.5,130.5 203.5,130.5 194.5,130.5C 194.5,96.8333 194.5,63.1667 194.5,29.5C 203.5,29.5 212.5,29.5 221.5,29.5C 221.334,33.5138 221.501,37.5138 222,41.5C 228.093,35.2099 235.259,30.8766 243.5,28.5 Z"/></g>
<g><path style="opacity:0.983" fill="#e60011" d="M 393.5,29.5 C 403.855,29.1681 414.188,29.5014 424.5,30.5C 432.694,51.5803 440.194,72.9136 447,94.5C 454.722,73.3335 462.056,52.0001 469,30.5C 479.439,29.1813 489.939,29.1813 500.5,30.5C 487.985,63.881 474.985,97.0477 461.5,130C 451.816,130.832 442.149,130.665 432.5,129.5C 419.493,96.1554 406.493,62.8221 393.5,29.5 Z"/></g>
<g><path style="opacity:0.982" fill="#e60011" d="M 128.5,28.5 C 158.538,25.0822 177.705,37.7488 186,66.5C 186.814,68.9018 186.647,71.2351 185.5,73.5C 164.232,82.4685 143.232,91.9685 122.5,102C 132.726,108.97 143.726,110.303 155.5,106C 159.766,103.619 163.932,101.119 168,98.5C 173.323,102.486 178.656,106.486 184,110.5C 184.667,111.5 184.667,112.5 184,113.5C 164.391,132.024 141.891,136.524 116.5,127C 93.4526,113.731 84.2859,93.898 89,67.5C 94.7898,46.876 107.956,33.876 128.5,28.5 Z M 134.5,51.5 C 145.028,50.5022 152.695,54.6688 157.5,64C 143.036,69.4819 128.869,75.6485 115,82.5C 112.971,66.5185 119.471,56.1852 134.5,51.5 Z"/></g>
<g><path style="opacity:0.984" fill="#e60011" d="M 339.5,28.5 C 371.564,26.1004 391.397,40.4338 399,71.5C 401.749,102.527 388.249,122.361 358.5,131C 327.158,134.255 307.325,120.755 299,90.5C 295.734,58.6642 309.234,37.9976 339.5,28.5 Z M 343.5,53.5 C 358.196,52.0275 367.696,58.3608 372,72.5C 374.076,82.4531 372.076,91.4531 366,99.5C 355.632,108.264 344.799,108.764 333.5,101C 321.226,86.2569 321.56,71.9236 334.5,58C 337.324,55.9212 340.324,54.4212 343.5,53.5 Z"/></g>
<g><path style="opacity:0.986" fill="#e60011" d="M 536.5,28.5 C 568.275,26.4555 588.108,40.7889 596,71.5C 598.499,94.3291 590.332,112.162 571.5,125C 546.812,136.916 524.979,133.083 506,113.5C 495.912,99.3974 492.579,83.7308 496,66.5C 502.333,45.9949 515.833,33.3283 536.5,28.5 Z M 539.5,53.5 C 558.098,52.5979 568.098,61.4312 569.5,80C 568.102,98.738 558.102,107.405 539.5,106C 528.857,102.345 523.024,94.8452 522,83.5C 520.408,69 526.242,59 539.5,53.5 Z"/></g>
</svg>
