<?xml version="1.0" encoding="UTF-8"?>
<!DOCTYPE svg PUBLIC "-//W3C//DTD SVG 1.1//EN" "http://www.w3.org/Graphics/SVG/1.1/DTD/svg11.dtd">
<svg xmlns="http://www.w3.org/2000/svg" version="1.1" width="259px" height="194px" style="shape-rendering:geometricPrecision; text-rendering:geometricPrecision; image-rendering:optimizeQuality; fill-rule:evenodd; clip-rule:evenodd" xmlns:xlink="http://www.w3.org/1999/xlink">
<g><path style="opacity:1" fill="#fefefe" d="M -0.5,-0.5 C 85.8333,-0.5 172.167,-0.5 258.5,-0.5C 258.5,64.1667 258.5,128.833 258.5,193.5C 172.167,193.5 85.8333,193.5 -0.5,193.5C -0.5,128.833 -0.5,64.1667 -0.5,-0.5 Z"/></g>
<g><path style="opacity:1" fill="#a40532" d="M 60.5,51.5 C 89.7513,48.6943 108.251,61.3609 116,89.5C 117.407,116.409 105.24,133.575 79.5,141C 53.261,143.976 35.761,133.143 27,108.5C 22.2501,79.9841 33.4167,60.9841 60.5,51.5 Z"/></g>
<g><path style="opacity:1" fill="#f7edef" d="M 62.5,58.5 C 65.8333,58.5 69.1667,58.5 72.5,58.5C 72.5,59.8333 72.5,61.1667 72.5,62.5C 54.1818,62.248 42.3485,70.9146 37,88.5C 34.0283,109.503 42.5283,123.337 62.5,130C 83.0461,132.984 96.8794,124.817 104,105.5C 104.497,103.19 104.663,100.857 104.5,98.5C 96.8333,98.5 89.1667,98.5 81.5,98.5C 81.5,97.1667 81.5,95.8333 81.5,94.5C 90.5,94.5 99.5,94.5 108.5,94.5C 106.644,123.181 91.3104,136.348 62.5,134C 41.0298,126.895 31.1964,112.062 33,89.5C 37.2527,73.7496 47.0861,63.4162 62.5,58.5 Z"/></g>
<g><path style="opacity:1" fill="#6b6b6b" d="M 220.5,103.5 C 217.038,102.518 213.371,102.185 209.5,102.5C 209.5,99.1667 209.5,95.8333 209.5,92.5C 217.167,92.5 224.833,92.5 232.5,92.5C 232.5,101.833 232.5,111.167 232.5,120.5C 227.084,123.86 221.084,125.693 214.5,126C 195.124,128.907 183.957,120.74 181,101.5C 179.052,75.1146 191.218,63.2812 217.5,66C 223.596,67.2129 228.596,70.2129 232.5,75C 230.167,77.3333 227.833,79.6667 225.5,82C 222.312,80.4061 218.979,78.7394 215.5,77C 203.262,74.5242 196.096,79.3576 194,91.5C 192.359,111.355 201.193,118.689 220.5,113.5C 220.5,110.167 220.5,106.833 220.5,103.5 Z"/></g>
<g><path style="opacity:1" fill="#6c6c6c" d="M 136.5,66.5 C 141.167,66.5 145.833,66.5 150.5,66.5C 150.5,82.5 150.5,98.5 150.5,114.5C 159.833,114.5 169.167,114.5 178.5,114.5C 178.5,118.167 178.5,121.833 178.5,125.5C 164.5,125.5 150.5,125.5 136.5,125.5C 136.5,105.833 136.5,86.1667 136.5,66.5 Z"/></g>
<g><path style="opacity:1" fill="#fbf4f6" d="M 53.5,76.5 C 59.6646,75.8293 62.1646,78.496 61,84.5C 57.6667,88.5 54.3333,88.5 51,84.5C 50.0182,81.2253 50.8515,78.5586 53.5,76.5 Z"/></g>
<g><path style="opacity:1" fill="#f8edef" d="M 68.5,76.5 C 69.8333,76.5 71.1667,76.5 72.5,76.5C 72.5,88.5 72.5,100.5 72.5,112.5C 75.5,112.5 78.5,112.5 81.5,112.5C 81.5,113.833 81.5,115.167 81.5,116.5C 77.1667,116.5 72.8333,116.5 68.5,116.5C 68.5,103.167 68.5,89.8333 68.5,76.5 Z"/></g>
<g><path style="opacity:1" fill="#c1c1c1" d="M 232.5,120.5 C 232.5,111.167 232.5,101.833 232.5,92.5C 224.833,92.5 217.167,92.5 209.5,92.5C 209.5,95.8333 209.5,99.1667 209.5,102.5C 213.371,102.185 217.038,102.518 220.5,103.5C 216.5,103.5 212.5,103.5 208.5,103.5C 208.5,99.5 208.5,95.5 208.5,91.5C 216.833,91.5 225.167,91.5 233.5,91.5C 233.827,101.348 233.494,111.014 232.5,120.5 Z"/></g>
</svg>
