<?xml version="1.0" encoding="UTF-8"?>
<!DOCTYPE svg PUBLIC "-//W3C//DTD SVG 1.1//EN" "http://www.w3.org/Graphics/SVG/1.1/DTD/svg11.dtd">
<svg xmlns="http://www.w3.org/2000/svg" version="1.1" width="278px" height="181px" style="shape-rendering:geometricPrecision; text-rendering:geometricPrecision; image-rendering:optimizeQuality; fill-rule:evenodd; clip-rule:evenodd" xmlns:xlink="http://www.w3.org/1999/xlink">
<g><path style="opacity:1" fill="#f1f1f1" d="M -0.5,-0.5 C 92.1667,-0.5 184.833,-0.5 277.5,-0.5C 277.5,59.8333 277.5,120.167 277.5,180.5C 184.833,180.5 92.1667,180.5 -0.5,180.5C -0.5,120.167 -0.5,59.8333 -0.5,-0.5 Z"/></g>
<g><path style="opacity:1" fill="#121e89" d="M 162.5,62.5 C 173.838,62.3335 185.172,62.5001 196.5,63C 204.823,63.7474 212.823,65.7474 220.5,69C 226.619,73.8599 227.119,79.3599 222,85.5C 216.43,90.3717 210.263,94.3717 203.5,97.5C 202.52,94.9135 202.187,92.2469 202.5,89.5C 200.167,89.5 197.833,89.5 195.5,89.5C 196.449,91.7373 197.116,94.0706 197.5,96.5C 196.5,96.5 195.5,96.5 194.5,96.5C 194.176,92.4454 194.509,88.4454 195.5,84.5C 197.258,86.7377 199.592,87.7377 202.5,87.5C 202.822,85.2776 202.155,83.4443 200.5,82C 196.683,80.9766 193.183,81.4766 190,83.5C 189.333,88.5 189.333,93.5 190,98.5C 191.648,99.717 193.481,100.55 195.5,101C 153.781,116.913 110.781,122.246 66.5,117C 61.8779,115.573 57.5446,113.573 53.5,111C 49.9743,104.23 51.3076,98.5634 57.5,94C 63.0713,90.1023 68.9046,86.6023 75,83.5C 75.3333,85.5 75.6667,87.5 76,89.5C 78.8131,91.1505 81.3131,93.1505 83.5,95.5C 82.675,96.3857 81.675,96.719 80.5,96.5C 80.5,95.5 80.5,94.5 80.5,93.5C 78.8333,93.5 77.1667,93.5 75.5,93.5C 75.1043,96.0444 75.771,98.2111 77.5,100C 85.9715,102.846 89.4715,100.013 88,91.5C 85.3806,89.7792 82.8806,87.9459 80.5,86C 81.593,84.1835 82.593,84.3501 83.5,86.5C 85.0453,87.4519 86.712,87.7852 88.5,87.5C 88.8804,84.2084 87.5471,81.8751 84.5,80.5C 96.3557,75.2834 108.689,71.4501 121.5,69C 135.148,65.7841 148.814,63.6175 162.5,62.5 Z"/></g>
<g><path style="opacity:1" fill="#e1e1e8" d="M 94.5,81.5 C 97.5,81.5 100.5,81.5 103.5,81.5C 104.392,87.8518 105.392,94.1851 106.5,100.5C 104.533,100.739 102.699,100.406 101,99.5C 100.24,95.181 99.5735,90.8477 99,86.5C 98.0845,90.8317 97.2511,95.1651 96.5,99.5C 94.9547,100.452 93.288,100.785 91.5,100.5C 92.1127,94.1036 93.1127,87.7703 94.5,81.5 Z"/></g>
<g><path style="opacity:1" fill="#8184af" d="M 175.5,90.5 C 174.521,93.6248 174.187,96.9581 174.5,100.5C 172.585,100.784 170.919,100.451 169.5,99.5C 170.833,99.5 172.167,99.5 173.5,99.5C 173.334,94.8215 173.501,90.1548 174,85.5C 174.608,87.1545 175.108,88.8211 175.5,90.5 Z"/></g>
<g><path style="opacity:1" fill="#e5e5eb" d="M 129.5,81.5 C 129.5,87.5 129.5,93.5 129.5,99.5C 128.167,99.5 126.833,99.5 125.5,99.5C 125.666,95.4862 125.499,91.4862 125,87.5C 123.927,91.0836 123.26,94.7502 123,98.5C 121,101.167 119,101.167 117,98.5C 116.519,94.4686 115.853,90.4686 115,86.5C 114.501,91.1548 114.334,95.8215 114.5,100.5C 112.833,100.5 111.167,100.5 109.5,100.5C 109.5,94.1667 109.5,87.8333 109.5,81.5C 112.5,81.5 115.5,81.5 118.5,81.5C 119.5,97.4977 120.5,97.4977 121.5,81.5C 124.167,81.5 126.833,81.5 129.5,81.5 Z"/></g>
<g><path style="opacity:1" fill="#9a9cbc" d="M 129.5,81.5 C 130.49,87.6446 130.823,93.9779 130.5,100.5C 128.585,100.784 126.919,100.451 125.5,99.5C 126.833,99.5 128.167,99.5 129.5,99.5C 129.5,93.5 129.5,87.5 129.5,81.5 Z"/></g>
<g><path style="opacity:1" fill="#e3e4e8" d="M 136.5,81.5 C 139.518,81.3354 142.518,81.502 145.5,82C 147.155,83.4443 147.822,85.2776 147.5,87.5C 144.592,87.7377 142.258,86.7377 140.5,84.5C 140.167,85 139.833,85.5 139.5,86C 142.248,87.8042 144.748,89.9709 147,92.5C 147.944,95.3471 147.444,97.8471 145.5,100C 142.5,100.667 139.5,100.667 136.5,100C 134.771,98.2111 134.104,96.0444 134.5,93.5C 136.167,93.5 137.833,93.5 139.5,93.5C 139.5,94.5 139.5,95.5 139.5,96.5C 140.675,96.719 141.675,96.3857 142.5,95.5C 140.313,93.1505 137.813,91.1505 135,89.5C 134.109,86.5024 134.609,83.8357 136.5,81.5 Z"/></g>
<g><path style="opacity:1" fill="#e9e9ee" d="M 178.5,89.5 C 179.09,90.766 179.59,92.0993 180,93.5C 180.499,89.5138 180.666,85.5138 180.5,81.5C 181.833,81.5 183.167,81.5 184.5,81.5C 184.5,87.8333 184.5,94.1667 184.5,100.5C 182.208,100.756 180.041,100.423 178,99.5C 176.855,96.5682 176.022,93.5682 175.5,90.5C 175.108,88.8211 174.608,87.1545 174,85.5C 173.501,90.1548 173.334,94.8215 173.5,99.5C 172.167,99.5 170.833,99.5 169.5,99.5C 169.5,93.5 169.5,87.5 169.5,81.5C 175.907,80.3055 178.907,82.9722 178.5,89.5 Z"/></g>
<g><path style="opacity:1" fill="#6d71a4" d="M 180.5,81.5 C 180.666,85.5138 180.499,89.5138 180,93.5C 179.59,92.0993 179.09,90.766 178.5,89.5C 179.167,86.8333 179.833,84.1667 180.5,81.5 Z"/></g>
<g><path style="opacity:1" fill="#ebebed" d="M 151.5,81.5 C 153.167,81.5 154.833,81.5 156.5,81.5C 156.5,86.5 156.5,91.5 156.5,96.5C 157.5,96.5 158.5,96.5 159.5,96.5C 159.5,91.5 159.5,86.5 159.5,81.5C 161.167,81.5 162.833,81.5 164.5,81.5C 164.666,87.1764 164.499,92.8431 164,98.5C 159.616,101.441 155.616,101.107 152,97.5C 151.501,92.1771 151.334,86.8437 151.5,81.5 Z"/></g>
</svg>
