<?xml version="1.0" encoding="UTF-8"?>
<!DOCTYPE svg PUBLIC "-//W3C//DTD SVG 1.1//EN" "http://www.w3.org/Graphics/SVG/1.1/DTD/svg11.dtd">
<svg xmlns="http://www.w3.org/2000/svg" version="1.1" width="314px" height="160px" style="shape-rendering:geometricPrecision; text-rendering:geometricPrecision; image-rendering:optimizeQuality; fill-rule:evenodd; clip-rule:evenodd" xmlns:xlink="http://www.w3.org/1999/xlink">
<g><path style="opacity:1" fill="#f5f6f6" d="M -0.5,-0.5 C 25.1667,-0.5 50.8333,-0.5 76.5,-0.5C 76.5,1.83333 76.5,4.16667 76.5,6.5C 74.1667,6.5 71.8333,6.5 69.5,6.5C 69.5,8.83333 69.5,11.1667 69.5,13.5C 71.8333,13.5 74.1667,13.5 76.5,13.5C 76.5,15.8333 76.5,18.1667 76.5,20.5C 74.1667,20.5 71.8333,20.5 69.5,20.5C 69.5,22.8333 69.5,25.1667 69.5,27.5C 71.8333,27.5 74.1667,27.5 76.5,27.5C 76.5,29.8333 76.5,32.1667 76.5,34.5C 74.1667,34.5 71.8333,34.5 69.5,34.5C 69.5,36.8333 69.5,39.1667 69.5,41.5C 71.8333,41.5 74.1667,41.5 76.5,41.5C 76.5286,45.1052 77.1953,48.6052 78.5,52C 77.3056,55.0759 76.639,58.2426 76.5,61.5C 74.1667,61.5 71.8333,61.5 69.5,61.5C 69.5,59.5 69.5,57.5 69.5,55.5C 67.1667,55.5 64.8333,55.5 62.5,55.5C 62.5,57.5 62.5,59.5 62.5,61.5C 60.1432,61.6633 57.8098,61.4966 55.5,61C 54.944,60.6174 54.6107,60.1174 54.5,59.5C 55.4584,59.0472 56.2917,58.3805 57,57.5C 57.6667,47.5 57.6667,37.5 57,27.5C 52.8445,23.2955 49.1779,23.6288 46,28.5C 45.3333,37.8333 45.3333,47.1667 46,56.5C 47.045,57.3734 47.8783,58.3734 48.5,59.5C 46.7211,61.3435 44.3878,62.0102 41.5,61.5C 41.5,59.5 41.5,57.5 41.5,55.5C 39.1667,55.5 36.8333,55.5 34.5,55.5C 34.5,57.5 34.5,59.5 34.5,61.5C 32.1667,61.5 29.8333,61.5 27.5,61.5C 27.5,59.5 27.5,57.5 27.5,55.5C 26.5,55.5 25.5,55.5 24.5,55.5C 24.6658,50.8215 24.4992,46.1548 24,41.5C 20.0923,37.5419 16.2589,37.5419 12.5,41.5C 10.5,41.5 8.5,41.5 6.5,41.5C 6.5,43.5 6.5,45.5 6.5,47.5C 4.16667,47.5 1.83333,47.5 -0.5,47.5C -0.5,31.5 -0.5,15.5 -0.5,-0.5 Z"/></g>
<g><path style="opacity:1" fill="#f6f5f5" d="M 97.5,-0.5 C 169.5,-0.5 241.5,-0.5 313.5,-0.5C 313.5,52.8333 313.5,106.167 313.5,159.5C 208.833,159.5 104.167,159.5 -0.5,159.5C -0.5,129.167 -0.5,98.8333 -0.5,68.5C 1.83333,68.5 4.16667,68.5 6.5,68.5C 6.5,66.5 6.5,64.5 6.5,62.5C 8.83333,62.5 11.1667,62.5 13.5,62.5C 13.5,64.5 13.5,66.5 13.5,68.5C 15.8333,68.5 18.1667,68.5 20.5,68.5C 20.5,66.5 20.5,64.5 20.5,62.5C 22.8333,62.5 25.1667,62.5 27.5,62.5C 27.5,64.5 27.5,66.5 27.5,68.5C 29.8333,68.5 32.1667,68.5 34.5,68.5C 34.5,66.5 34.5,64.5 34.5,62.5C 36.8333,62.5 39.1667,62.5 41.5,62.5C 41.5,64.5 41.5,66.5 41.5,68.5C 43.8333,68.5 46.1667,68.5 48.5,68.5C 48.5,66.5 48.5,64.5 48.5,62.5C 50.8333,62.5 53.1667,62.5 55.5,62.5C 55.5,64.5 55.5,66.5 55.5,68.5C 57.8333,68.5 60.1667,68.5 62.5,68.5C 62.5,66.5 62.5,64.5 62.5,62.5C 64.8333,62.5 67.1667,62.5 69.5,62.5C 69.5,64.5 69.5,66.5 69.5,68.5C 71.8333,68.5 74.1667,68.5 76.5,68.5C 76.2011,66.396 76.5344,64.396 77.5,62.5C 78.1757,63.6016 78.8423,64.6016 79.5,65.5C 80.1138,68.7658 82.1138,70.0991 85.5,69.5C 88.2241,69.9544 90.0575,68.9544 91,66.5C 91.4998,55.8385 91.6665,45.1719 91.5,34.5C 93.5,34.5 95.5,34.5 97.5,34.5C 97.5,32.1667 97.5,29.8333 97.5,27.5C 99.5,27.5 101.5,27.5 103.5,27.5C 103.5,25.1667 103.5,22.8333 103.5,20.5C 101.5,20.5 99.5,20.5 97.5,20.5C 97.5,18.1667 97.5,15.8333 97.5,13.5C 99.5,13.5 101.5,13.5 103.5,13.5C 103.5,11.1667 103.5,8.83333 103.5,6.5C 101.5,6.5 99.5,6.5 97.5,6.5C 97.5,4.16667 97.5,1.83333 97.5,-0.5 Z"/></g>
<g><path style="opacity:1" fill="#13475d" d="M 91.5,34.5 C 91.6665,45.1719 91.4998,55.8385 91,66.5C 90.0575,68.9544 88.2241,69.9544 85.5,69.5C 82.1138,70.0991 80.1138,68.7658 79.5,65.5C 79.3334,46.4971 79.5001,27.4971 80,8.5C 82.5692,5.42966 85.7358,4.76299 89.5,6.5C 90.1924,7.02527 90.6924,7.69194 91,8.5C 91.4998,17.1603 91.6664,25.8269 91.5,34.5 Z"/></g>
<g><path style="opacity:1" fill="#14485d" d="M 216.5,5.5 C 220.013,4.87566 222.847,5.87566 225,8.5C 225.667,28.1667 225.667,47.8333 225,67.5C 222.159,69.5037 218.993,70.0037 215.5,69C 214.874,68.2496 214.374,67.4162 214,66.5C 213.333,47.1667 213.333,27.8333 214,8.5C 215.045,7.62656 215.878,6.62656 216.5,5.5 Z"/></g>
<g><path style="opacity:1" fill="#1d4d61" d="M 183.5,24.5 C 187.355,23.8454 190.188,25.1788 192,28.5C 192.667,37.8333 192.667,47.1667 192,56.5C 188.61,60.0324 184.943,60.3658 181,57.5C 180.333,47.1667 180.333,36.8333 181,26.5C 181.995,25.9341 182.828,25.2674 183.5,24.5 Z"/></g>
<g><path style="opacity:1" fill="#1a4b60" d="M 54.5,59.5 C 52.5,59.5 50.5,59.5 48.5,59.5C 47.8783,58.3734 47.045,57.3734 46,56.5C 45.3333,47.1667 45.3333,37.8333 46,28.5C 49.1779,23.6288 52.8445,23.2955 57,27.5C 57.6667,37.5 57.6667,47.5 57,57.5C 56.2917,58.3805 55.4584,59.0472 54.5,59.5 Z"/></g>
<g><path style="opacity:1" fill="#255165" d="M 116.5,24.5 C 120.355,23.8454 123.188,25.1788 125,28.5C 125.667,37.8333 125.667,47.1667 125,56.5C 121,60.5 117,60.5 113,56.5C 112.333,47.1667 112.333,37.8333 113,28.5C 113.69,26.6498 114.856,25.3164 116.5,24.5 Z"/></g>
<g><path style="opacity:1" fill="#1a4b60" d="M 250.5,24.5 C 253.862,24.0695 256.695,25.0695 259,27.5C 259.667,37.1667 259.667,46.8333 259,56.5C 255.61,60.0324 251.943,60.3658 248,57.5C 247.333,47.5 247.333,37.5 248,27.5C 249.045,26.6266 249.878,25.6266 250.5,24.5 Z"/></g>
<g><path style="opacity:1" fill="#16495e" d="M 24.5,55.5 C 21.5806,59.9317 17.9139,60.5984 13.5,57.5C 12.5488,52.2302 12.2154,46.8968 12.5,41.5C 16.2589,37.5419 20.0923,37.5419 24,41.5C 24.4992,46.1548 24.6658,50.8215 24.5,55.5 Z"/></g>
<g><path style="opacity:1" fill="#16495e" d="M 150.5,38.5 C 153.505,38.253 156.005,39.253 158,41.5C 158.667,46.5 158.667,51.5 158,56.5C 155.833,59.2868 152.999,60.1201 149.5,59C 148.333,58.5 147.5,57.6667 147,56.5C 146.333,51.5 146.333,46.5 147,41.5C 148.145,40.3636 149.312,39.3636 150.5,38.5 Z"/></g>
<g><path style="opacity:1" fill="#16495e" d="M 284.5,38.5 C 287.505,38.253 290.005,39.253 292,41.5C 292.667,46.8333 292.667,52.1667 292,57.5C 287.982,60.4386 284.315,60.1053 281,56.5C 280.333,51.8333 280.333,47.1667 281,42.5C 281.69,40.6498 282.856,39.3164 284.5,38.5 Z"/></g>
<g><path style="opacity:1" fill="#eff0f0" d="M 76.5,-0.5 C 83.5,-0.5 90.5,-0.5 97.5,-0.5C 97.5,1.83333 97.5,4.16667 97.5,6.5C 99.5,6.5 101.5,6.5 103.5,6.5C 103.5,8.83333 103.5,11.1667 103.5,13.5C 101.5,13.5 99.5,13.5 97.5,13.5C 97.5,15.8333 97.5,18.1667 97.5,20.5C 99.5,20.5 101.5,20.5 103.5,20.5C 103.5,22.8333 103.5,25.1667 103.5,27.5C 101.5,27.5 99.5,27.5 97.5,27.5C 97.5,29.8333 97.5,32.1667 97.5,34.5C 95.5,34.5 93.5,34.5 91.5,34.5C 91.6664,25.8269 91.4998,17.1603 91,8.5C 90.6924,7.69194 90.1924,7.02527 89.5,6.5C 85.7358,4.76299 82.5692,5.42966 80,8.5C 79.5001,27.4971 79.3334,46.4971 79.5,65.5C 78.8423,64.6016 78.1757,63.6016 77.5,62.5C 76.5344,64.396 76.2011,66.396 76.5,68.5C 74.1667,68.5 71.8333,68.5 69.5,68.5C 69.5,66.5 69.5,64.5 69.5,62.5C 67.1667,62.5 64.8333,62.5 62.5,62.5C 62.5,64.5 62.5,66.5 62.5,68.5C 60.1667,68.5 57.8333,68.5 55.5,68.5C 55.5,66.5 55.5,64.5 55.5,62.5C 53.1667,62.5 50.8333,62.5 48.5,62.5C 48.5,64.5 48.5,66.5 48.5,68.5C 46.1667,68.5 43.8333,68.5 41.5,68.5C 41.5,66.5 41.5,64.5 41.5,62.5C 39.1667,62.5 36.8333,62.5 34.5,62.5C 34.5,64.5 34.5,66.5 34.5,68.5C 32.1667,68.5 29.8333,68.5 27.5,68.5C 27.5,66.5 27.5,64.5 27.5,62.5C 25.1667,62.5 22.8333,62.5 20.5,62.5C 20.5,64.5 20.5,66.5 20.5,68.5C 18.1667,68.5 15.8333,68.5 13.5,68.5C 13.5,66.5 13.5,64.5 13.5,62.5C 11.1667,62.5 8.83333,62.5 6.5,62.5C 6.5,64.5 6.5,66.5 6.5,68.5C 4.16667,68.5 1.83333,68.5 -0.5,68.5C -0.5,61.5 -0.5,54.5 -0.5,47.5C 1.83333,47.5 4.16667,47.5 6.5,47.5C 6.5,45.5 6.5,43.5 6.5,41.5C 8.5,41.5 10.5,41.5 12.5,41.5C 12.2154,46.8968 12.5488,52.2302 13.5,57.5C 17.9139,60.5984 21.5806,59.9317 24.5,55.5C 25.5,55.5 26.5,55.5 27.5,55.5C 27.5,57.5 27.5,59.5 27.5,61.5C 29.8333,61.5 32.1667,61.5 34.5,61.5C 34.5,59.5 34.5,57.5 34.5,55.5C 36.8333,55.5 39.1667,55.5 41.5,55.5C 41.5,57.5 41.5,59.5 41.5,61.5C 44.3878,62.0102 46.7211,61.3435 48.5,59.5C 50.5,59.5 52.5,59.5 54.5,59.5C 54.6107,60.1174 54.944,60.6174 55.5,61C 57.8098,61.4966 60.1432,61.6633 62.5,61.5C 62.5,59.5 62.5,57.5 62.5,55.5C 64.8333,55.5 67.1667,55.5 69.5,55.5C 69.5,57.5 69.5,59.5 69.5,61.5C 71.8333,61.5 74.1667,61.5 76.5,61.5C 76.639,58.2426 77.3056,55.0759 78.5,52C 77.1953,48.6052 76.5286,45.1052 76.5,41.5C 74.1667,41.5 71.8333,41.5 69.5,41.5C 69.5,39.1667 69.5,36.8333 69.5,34.5C 71.8333,34.5 74.1667,34.5 76.5,34.5C 76.5,32.1667 76.5,29.8333 76.5,27.5C 74.1667,27.5 71.8333,27.5 69.5,27.5C 69.5,25.1667 69.5,22.8333 69.5,20.5C 71.8333,20.5 74.1667,20.5 76.5,20.5C 76.5,18.1667 76.5,15.8333 76.5,13.5C 74.1667,13.5 71.8333,13.5 69.5,13.5C 69.5,11.1667 69.5,8.83333 69.5,6.5C 71.8333,6.5 74.1667,6.5 76.5,6.5C 76.5,4.16667 76.5,1.83333 76.5,-0.5 Z"/></g>
<g><path style="opacity:1" fill="#c5172e" d="M 131.5,87.5 C 137.857,87.4763 144.19,87.8096 150.5,88.5C 150.665,91.5184 150.498,94.5184 150,97.5C 145.252,96.3651 140.419,96.1985 135.5,97C 133.342,98.3117 133.009,99.9783 134.5,102C 138.392,103.64 142.392,104.973 146.5,106C 153.94,110.623 155.44,116.789 151,124.5C 148.228,126.761 145.062,128.261 141.5,129C 134.508,129.5 127.508,129.666 120.5,129.5C 120.335,126.15 120.502,122.817 121,119.5C 126.75,120.641 132.584,120.807 138.5,120C 140.56,118.507 140.893,116.674 139.5,114.5C 134.596,113.274 129.929,111.44 125.5,109C 120.47,105.144 119.303,100.311 122,94.5C 124.529,91.1151 127.696,88.7818 131.5,87.5 Z"/></g>
<g><path style="opacity:1" fill="#c5132d" d="M 201.5,118.5 C 202.479,121.625 202.813,124.958 202.5,128.5C 192.694,130.723 183.361,129.557 174.5,125C 166.535,118.077 164.368,109.577 168,99.5C 173.73,91.134 181.73,87.134 192,87.5C 195.511,87.804 199.011,88.1373 202.5,88.5C 202.823,92.226 202.489,95.8927 201.5,99.5C 193.952,96.1296 187.118,97.1296 181,102.5C 177.612,113.621 181.779,119.288 193.5,119.5C 196.217,119.386 198.884,119.052 201.5,118.5 Z"/></g>
<g><path style="opacity:1" fill="#c5142d" d="M 236.5,87.5 C 250.621,85.6408 260.788,90.9741 267,103.5C 268.189,117.314 262.023,125.814 248.5,129C 235.689,131.845 225.522,128.012 218,117.5C 214.114,101.232 220.281,91.2319 236.5,87.5 Z"/></g>
<g><path style="opacity:1" fill="#c5152d" d="M 56.5,87.5 C 62.523,87.502 68.523,87.8354 74.5,88.5C 74.8226,92.226 74.4892,95.8927 73.5,99.5C 65.3023,95.7942 58.1356,97.1275 52,103.5C 49.339,110.679 51.5057,115.846 58.5,119C 63.8377,119.879 69.0043,119.379 74,117.5C 74.4986,121.152 74.6653,124.818 74.5,128.5C 66.7881,129.997 59.1215,129.83 51.5,128C 37.8453,121.37 34.3453,111.203 41,97.5C 45.194,92.4965 50.3607,89.1631 56.5,87.5 Z"/></g>
<g><path style="opacity:1" fill="#c5132d" d="M 91.5,88.5 C 95.5,88.5 99.5,88.5 103.5,88.5C 103.5,102.167 103.5,115.833 103.5,129.5C 99.5,129.5 95.5,129.5 91.5,129.5C 91.5,115.833 91.5,102.167 91.5,88.5 Z"/></g>
<g><path style="opacity:1" fill="#f5f2f2" d="M 238.5,97.5 C 249.23,97.0652 254.396,102.065 254,112.5C 249.874,118.97 244.041,121.137 236.5,119C 229.45,115.328 227.617,109.828 231,102.5C 233.17,100.177 235.67,98.5103 238.5,97.5 Z"/></g>
<g><path style="opacity:1" fill="#de8b96" d="M 201.5,118.5 C 201.56,117.957 201.893,117.624 202.5,117.5C 203.808,121.315 203.808,124.981 202.5,128.5C 202.813,124.958 202.479,121.625 201.5,118.5 Z"/></g>
<g><path style="opacity:1" fill="#d5626d" d="M 280.5,124.5 C 284.262,122.72 287.095,123.72 289,127.5C 289.583,125.998 290.416,124.665 291.5,123.5C 292.641,125.421 292.808,127.421 292,129.5C 291.667,128.5 291.333,127.5 291,126.5C 289.667,130.5 288.333,130.5 287,126.5C 286.667,127.5 286.333,128.5 286,129.5C 285,122.833 284,122.833 283,129.5C 282.95,127.256 282.117,125.589 280.5,124.5 Z"/></g>
</svg>
