<?xml version="1.0" encoding="UTF-8"?>
<!DOCTYPE svg PUBLIC "-//W3C//DTD SVG 1.1//EN" "http://www.w3.org/Graphics/SVG/1.1/DTD/svg11.dtd">
<svg xmlns="http://www.w3.org/2000/svg" version="1.1" width="412px" height="122px" style="shape-rendering:geometricPrecision; text-rendering:geometricPrecision; image-rendering:optimizeQuality; fill-rule:evenodd; clip-rule:evenodd" xmlns:xlink="http://www.w3.org/1999/xlink">
<g><path style="opacity:1" fill="#fcfcfc" d="M -0.5,-0.5 C 136.833,-0.5 274.167,-0.5 411.5,-0.5C 411.5,40.1667 411.5,80.8333 411.5,121.5C 274.167,121.5 136.833,121.5 -0.5,121.5C -0.5,80.8333 -0.5,40.1667 -0.5,-0.5 Z"/></g>
<g><path style="opacity:1" fill="#2d2d2d" d="M 379.5,1.5 C 387.903,2.32011 390.736,6.65344 388,14.5C 382.967,18.7793 378.3,18.4459 374,13.5C 372.486,7.87679 374.319,3.87679 379.5,1.5 Z"/></g>
<g><path style="opacity:1" fill="#070707" d="M 53.5,6.5 C 74.1667,6.5 94.8333,6.5 115.5,6.5C 115.007,11.4635 114.007,16.2968 112.5,21C 93.5,21.3333 74.5,21.6667 55.5,22C 53.593,28.3117 52.593,34.8117 52.5,41.5C 65.5043,41.3334 78.5043,41.5001 91.5,42C 100.168,43.1688 105.502,48.0022 107.5,56.5C 106.231,64.553 104.731,72.553 103,80.5C 98.6101,87.2795 92.4434,91.4462 84.5,93C 65.1667,93.6667 45.8333,93.6667 26.5,93C 25.7163,87.8914 26.383,82.8914 28.5,78C 47.5,77.6667 66.5,77.3333 85.5,77C 87.5249,70.6961 88.8582,64.1961 89.5,57.5C 75.8293,57.6666 62.1626,57.4999 48.5,57C 39.2423,55.252 34.5756,49.752 34.5,40.5C 35.1866,33.4202 36.3533,26.4202 38,19.5C 41.8198,13.5096 46.9865,9.17626 53.5,6.5 Z"/></g>
<g><path style="opacity:1" fill="#060606" d="M 134.5,6.5 C 154.836,6.33338 175.169,6.50004 195.5,7C 203.213,8.87659 207.547,13.7099 208.5,21.5C 206.34,34.1469 204.173,46.8135 202,59.5C 199.969,67.8671 194.802,73.3671 186.5,76C 171.539,77.23 156.539,77.8967 141.5,78C 140.167,83 138.833,88 137.5,93C 132.167,93.6667 126.833,93.6667 121.5,93C 120.941,92.2753 120.608,91.4419 120.5,90.5C 125.559,62.544 130.225,34.544 134.5,6.5 Z"/></g>
<g><path style="opacity:1" fill="#e2e2e2" d="M 378.5,3.5 C 387.306,3.46405 389.639,7.29738 385.5,15C 377.685,17.5222 374.518,14.6888 376,6.5C 376.698,5.30943 377.531,4.30943 378.5,3.5 Z"/></g>
<g><path style="opacity:1" fill="#1d1d1d" d="M 378.5,5.5 C 380.467,5.26057 382.301,5.59391 384,6.5C 383.744,9.19359 383.577,11.8603 383.5,14.5C 382.852,12.8508 381.852,11.5175 380.5,10.5C 379.749,11.376 379.249,12.376 379,13.5C 378.503,10.854 378.336,8.1873 378.5,5.5 Z"/></g>
<g><path style="opacity:1" fill="#adadad" d="M 379.5,6.5 C 380.5,6.5 381.5,6.5 382.5,6.5C 382.5,7.5 382.5,8.5 382.5,9.5C 381.5,9.5 380.5,9.5 379.5,9.5C 379.5,8.5 379.5,7.5 379.5,6.5 Z"/></g>
<g><path style="opacity:1" fill="#248ac9" d="M 326.5,22.5 C 324.833,21.1667 323.167,19.8333 321.5,18.5C 320.27,16.7028 319.604,14.7028 319.5,12.5C 320.822,12.67 321.989,12.3366 323,11.5C 323.093,8.99253 323.926,6.82586 325.5,5C 329.211,4.5611 332.878,4.89443 336.5,6C 339.333,8.16667 342.167,10.3333 345,12.5C 346.128,14.3453 346.628,16.3453 346.5,18.5C 342.702,17.8456 339.036,16.8456 335.5,15.5C 335.5,16.8333 335.5,18.1667 335.5,19.5C 337.144,19.2865 338.644,19.6198 340,20.5C 340.495,22.4727 340.662,24.4727 340.5,26.5C 338.436,26.313 336.436,25.813 334.5,25C 333.663,23.9887 333.33,22.8221 333.5,21.5C 330.941,21.1984 328.607,21.5318 326.5,22.5 Z"/></g>
<g><path style="opacity:1" fill="#050505" d="M 237.5,77.5 C 256.023,77.8374 274.356,78.8374 292.5,80.5C 288.213,87.6519 281.879,91.8185 273.5,93C 260.167,93.6667 246.833,93.6667 233.5,93C 223.773,91.7741 218.773,86.2741 218.5,76.5C 221.178,58.7941 224.011,41.1275 227,23.5C 229.807,15.3593 235.307,9.85928 243.5,7C 259.167,6.33333 274.833,6.33333 290.5,7C 298.134,9.13135 302.801,13.9647 304.5,21.5C 285.164,21.3334 265.83,21.5 246.5,22C 244.996,23.4907 244.163,25.324 244,27.5C 241.883,41.5363 239.55,55.5363 237,69.5C 236.199,72.367 236.366,75.0336 237.5,77.5 Z"/></g>
<g><path style="opacity:1" fill="#2f84b7" d="M 360.5,24.5 C 356.73,23.7357 353.397,22.0691 350.5,19.5C 346.501,22.3607 346.668,25.0274 351,27.5C 351.49,28.7932 351.657,30.1266 351.5,31.5C 350.167,31.5 348.833,31.5 347.5,31.5C 347.716,26.4133 345.882,25.4133 342,28.5C 341.517,29.448 341.351,30.448 341.5,31.5C 344.702,31.5367 346.368,33.2033 346.5,36.5C 339.575,32.2479 332.908,27.5812 326.5,22.5C 328.607,21.5318 330.941,21.1984 333.5,21.5C 333.33,22.8221 333.663,23.9887 334.5,25C 336.436,25.813 338.436,26.313 340.5,26.5C 340.662,24.4727 340.495,22.4727 340,20.5C 338.644,19.6198 337.144,19.2865 335.5,19.5C 335.5,18.1667 335.5,16.8333 335.5,15.5C 339.036,16.8456 342.702,17.8456 346.5,18.5C 346.628,16.3453 346.128,14.3453 345,12.5C 342.167,10.3333 339.333,8.16667 336.5,6C 332.878,4.89443 329.211,4.5611 325.5,5C 323.926,6.82586 323.093,8.99253 323,11.5C 321.989,12.3366 320.822,12.67 319.5,12.5C 318.417,5.57676 321.417,1.91009 328.5,1.5C 330.867,1.84167 333.2,2.34167 335.5,3C 344.615,9.28338 352.948,16.45 360.5,24.5 Z"/></g>
<g><path style="opacity:1" fill="#fafafa" d="M 151.5,21.5 C 164.171,21.3334 176.838,21.5001 189.5,22C 190.059,22.7247 190.392,23.5581 190.5,24.5C 188.123,36.706 185.79,48.8727 183.5,61C 170.171,61.4999 156.837,61.6666 143.5,61.5C 145.286,49.8316 147.119,38.1649 149,26.5C 149.366,24.5483 150.199,22.8816 151.5,21.5 Z"/></g>
<g><path style="opacity:1" fill="#1d76bc" d="M 360.5,24.5 C 363.427,25.7573 365.761,27.7573 367.5,30.5C 367.338,32.5273 367.505,34.5273 368,36.5C 370.545,37.5218 373.045,38.6884 375.5,40C 376.252,40.6708 376.586,41.5041 376.5,42.5C 375.596,43.209 375.263,44.209 375.5,45.5C 373.498,46.7554 370.831,47.422 367.5,47.5C 365.968,48.6774 364.468,50.0107 363,51.5C 360.692,48.0252 358.192,44.6919 355.5,41.5C 354.311,40.5713 352.978,40.238 351.5,40.5C 349.251,39.9202 347.585,38.5869 346.5,36.5C 346.368,33.2033 344.702,31.5367 341.5,31.5C 341.351,30.448 341.517,29.448 342,28.5C 345.882,25.4133 347.716,26.4133 347.5,31.5C 348.833,31.5 350.167,31.5 351.5,31.5C 351.657,30.1266 351.49,28.7932 351,27.5C 346.668,25.0274 346.501,22.3607 350.5,19.5C 353.397,22.0691 356.73,23.7357 360.5,24.5 Z"/></g>
<g><path style="opacity:1" fill="#3170a1" d="M 367.5,30.5 C 370.394,31.8823 372.894,33.8823 375,36.5C 378.049,40.0426 380.882,43.7093 383.5,47.5C 381.409,47.6816 379.409,47.3482 377.5,46.5C 377.212,45.1395 376.879,43.8062 376.5,42.5C 376.586,41.5041 376.252,40.6708 375.5,40C 373.045,38.6884 370.545,37.5218 368,36.5C 367.505,34.5273 367.338,32.5273 367.5,30.5 Z"/></g>
<g><path style="opacity:1" fill="#3c5b82" d="M 335.5,37.5 C 331.453,35.057 327.286,32.7237 323,30.5C 318.453,32.8968 315.286,36.5635 313.5,41.5C 310.549,49.5401 309.216,57.8735 309.5,66.5C 308.883,66.6107 308.383,66.944 308,67.5C 307.505,69.4727 307.338,71.4727 307.5,73.5C 307.167,73.5 306.833,73.5 306.5,73.5C 306.5,69.1667 306.5,64.8333 306.5,60.5C 307.995,49.7323 311.995,39.899 318.5,31C 320.695,29.627 323.029,29.2937 325.5,30C 329.3,31.9789 332.634,34.4789 335.5,37.5 Z"/></g>
<g><path style="opacity:1" fill="#306699" d="M 351.5,40.5 C 352.978,40.238 354.311,40.5713 355.5,41.5C 358.192,44.6919 360.692,48.0252 363,51.5C 364.468,50.0107 365.968,48.6774 367.5,47.5C 366.537,53.8207 365.37,60.154 364,66.5C 362.691,68.9757 360.858,70.9757 358.5,72.5C 357.571,73.6888 357.238,75.0222 357.5,76.5C 355.833,76.5 354.167,76.5 352.5,76.5C 355.731,73.2854 358.897,69.952 362,66.5C 364.168,61.3431 363.835,56.3431 361,51.5C 357.998,47.6662 354.831,43.9995 351.5,40.5 Z"/></g>
<g><path style="opacity:1" fill="#2ab6e8" d="M 332.5,51.5 C 335.813,52.0448 339.146,52.5448 342.5,53C 342.693,55.4869 343.026,57.9869 343.5,60.5C 340.306,62.0148 337.139,63.6815 334,65.5C 328.529,67.8239 325.695,66.3239 325.5,61C 327.665,57.6743 329.998,54.5077 332.5,51.5 Z"/></g>
<g><path style="opacity:1" fill="#287ec2" d="M 313.5,41.5 C 315.179,41.2852 316.179,41.9519 316.5,43.5C 315.736,48.5467 315.069,53.38 314.5,58C 314.996,61.9849 315.996,65.8182 317.5,69.5C 327.269,72.8192 336.269,71.4858 344.5,65.5C 345.107,65.6236 345.44,65.9569 345.5,66.5C 344.37,68.3146 343.704,70.3146 343.5,72.5C 340.99,73.7834 338.323,74.7834 335.5,75.5C 335.5,76.5 335.5,77.5 335.5,78.5C 335.158,79.3382 334.492,79.6716 333.5,79.5C 328.311,78.1835 323.644,75.6835 319.5,72C 317.833,71.6667 316.167,71.3333 314.5,71C 312.963,69.2927 311.296,67.7927 309.5,66.5C 309.216,57.8735 310.549,49.5401 313.5,41.5 Z"/></g>
<g><path style="opacity:1" fill="#2594d2" d="M 316.5,43.5 C 317.161,44.7175 317.828,46.0508 318.5,47.5C 319.298,47.0431 319.631,46.3764 319.5,45.5C 324.356,46.7701 328.689,48.7701 332.5,51.5C 329.998,54.5077 327.665,57.6743 325.5,61C 325.695,66.3239 328.529,67.8239 334,65.5C 337.139,63.6815 340.306,62.0148 343.5,60.5C 345.5,58.8333 347.5,57.1667 349.5,55.5C 348.351,58.0408 348.351,60.5408 349.5,63C 348.295,64.3756 346.962,65.5423 345.5,66.5C 345.44,65.9569 345.107,65.6236 344.5,65.5C 336.269,71.4858 327.269,72.8192 317.5,69.5C 315.996,65.8182 314.996,61.9849 314.5,58C 315.069,53.38 315.736,48.5467 316.5,43.5 Z"/></g>
<g><path style="opacity:1" fill="#edf6f8" d="M 321.5,18.5 C 323.167,19.8333 324.833,21.1667 326.5,22.5C 332.908,27.5812 339.575,32.2479 346.5,36.5C 347.585,38.5869 349.251,39.9202 351.5,40.5C 354.831,43.9995 357.998,47.6662 361,51.5C 363.835,56.3431 364.168,61.3431 362,66.5C 358.897,69.952 355.731,73.2854 352.5,76.5C 352.167,76.5 351.833,76.5 351.5,76.5C 341.303,82.7642 330.97,88.7642 320.5,94.5C 320.196,93.8501 319.863,93.1835 319.5,92.5C 321.987,91.4235 324.32,90.0902 326.5,88.5C 326,88.1667 325.5,87.8333 325,87.5C 320.834,89.544 316.668,89.7107 312.5,88C 310.304,85.5424 307.971,83.2091 305.5,81C 305.73,78.5018 306.063,76.0018 306.5,73.5C 306.833,73.5 307.167,73.5 307.5,73.5C 307.111,76.5533 307.777,79.22 309.5,81.5C 311.403,86.4529 314.737,88.1196 319.5,86.5C 324.753,85.207 329.419,82.8737 333.5,79.5C 334.492,79.6716 335.158,79.3382 335.5,78.5C 342.106,75.2728 347.939,70.9395 353,65.5C 356.512,60.2397 356.179,55.2397 352,50.5C 348.411,46.3083 344.244,42.9749 339.5,40.5C 338.738,38.7376 337.404,37.7376 335.5,37.5C 332.634,34.4789 329.3,31.9789 325.5,30C 323.029,29.2937 320.695,29.627 318.5,31C 311.995,39.899 307.995,49.7323 306.5,60.5C 306.334,56.1539 306.501,51.8206 307,47.5C 309.085,43.7452 310.752,39.7452 312,35.5C 313.908,32.5347 316.074,29.8681 318.5,27.5C 319.255,24.3484 320.255,21.3484 321.5,18.5 Z"/></g>
<g><path style="opacity:1" fill="#61abde" d="M 339.5,40.5 C 341.834,43.6662 344.667,46.3329 348,48.5C 349.202,50.6775 349.702,53.0108 349.5,55.5C 347.5,57.1667 345.5,58.8333 343.5,60.5C 343.026,57.9869 342.693,55.4869 342.5,53C 339.146,52.5448 335.813,52.0448 332.5,51.5C 328.689,48.7701 324.356,46.7701 319.5,45.5C 322.996,42.7505 326.996,40.5839 331.5,39C 334.322,38.5721 336.988,39.0721 339.5,40.5 Z"/></g>
<g><path style="opacity:1" fill="#7096ca" d="M 335.5,37.5 C 337.404,37.7376 338.738,38.7376 339.5,40.5C 336.988,39.0721 334.322,38.5721 331.5,39C 326.996,40.5839 322.996,42.7505 319.5,45.5C 319.631,46.3764 319.298,47.0431 318.5,47.5C 317.828,46.0508 317.161,44.7175 316.5,43.5C 316.179,41.9519 315.179,41.2852 313.5,41.5C 315.286,36.5635 318.453,32.8968 323,30.5C 327.286,32.7237 331.453,35.057 335.5,37.5 Z"/></g>
<g><path style="opacity:1" fill="#3071a4" d="M 339.5,40.5 C 344.244,42.9749 348.411,46.3083 352,50.5C 356.179,55.2397 356.512,60.2397 353,65.5C 347.939,70.9395 342.106,75.2728 335.5,78.5C 335.5,77.5 335.5,76.5 335.5,75.5C 338.323,74.7834 340.99,73.7834 343.5,72.5C 343.704,70.3146 344.37,68.3146 345.5,66.5C 346.962,65.5423 348.295,64.3756 349.5,63C 348.351,60.5408 348.351,58.0408 349.5,55.5C 349.702,53.0108 349.202,50.6775 348,48.5C 344.667,46.3329 341.834,43.6662 339.5,40.5 Z"/></g>
<g><path style="opacity:1" fill="#2462a6" d="M 309.5,66.5 C 311.296,67.7927 312.963,69.2927 314.5,71C 316.167,71.3333 317.833,71.6667 319.5,72C 323.644,75.6835 328.311,78.1835 333.5,79.5C 329.419,82.8737 324.753,85.207 319.5,86.5C 319.5,85.1667 319.5,83.8333 319.5,82.5C 312.908,81.4284 312.908,80.4284 319.5,79.5C 319.649,78.448 319.483,77.448 319,76.5C 316.044,74.5469 313.377,72.2136 311,69.5C 309.576,73.2968 309.076,77.2968 309.5,81.5C 307.777,79.22 307.111,76.5533 307.5,73.5C 307.338,71.4727 307.505,69.4727 308,67.5C 308.383,66.944 308.883,66.6107 309.5,66.5 Z"/></g>
<g><path style="opacity:1" fill="#235ca8" d="M 376.5,42.5 C 376.879,43.8062 377.212,45.1395 377.5,46.5C 379.409,47.3482 381.409,47.6816 383.5,47.5C 385.2,52.1103 386.2,56.9437 386.5,62C 386.333,64.1667 386.167,66.3333 386,68.5C 384.562,69.9003 383.729,71.567 383.5,73.5C 379.686,73.6509 378.019,75.6509 378.5,79.5C 374.579,81.4187 370.912,83.752 367.5,86.5C 367.565,86.0618 367.399,85.7284 367,85.5C 363.255,86.4884 359.422,87.155 355.5,87.5C 357.277,86.3995 359.277,85.5662 361.5,85C 362.93,83.1197 362.596,81.6197 360.5,80.5C 356.201,84.4331 352.201,84.2664 348.5,80C 349.448,79.5172 350.448,79.3505 351.5,79.5C 351.5,78.5 351.5,77.5 351.5,76.5C 351.833,76.5 352.167,76.5 352.5,76.5C 354.167,76.5 355.833,76.5 357.5,76.5C 357.238,75.0222 357.571,73.6888 358.5,72.5C 360.858,70.9757 362.691,68.9757 364,66.5C 365.37,60.154 366.537,53.8207 367.5,47.5C 370.831,47.422 373.498,46.7554 375.5,45.5C 375.263,44.209 375.596,43.209 376.5,42.5 Z"/></g>
<g><path style="opacity:1" fill="#365985" d="M 383.5,47.5 C 385.746,49.6489 387.246,52.3156 388,55.5C 389.657,63.8572 387.657,71.1906 382,77.5C 377.781,82.3435 372.947,86.3435 367.5,89.5C 367.5,88.5 367.5,87.5 367.5,86.5C 370.912,83.752 374.579,81.4187 378.5,79.5C 378.019,75.6509 379.686,73.6509 383.5,73.5C 383.729,71.567 384.562,69.9003 386,68.5C 386.167,66.3333 386.333,64.1667 386.5,62C 386.2,56.9437 385.2,52.1103 383.5,47.5 Z"/></g>
<g><path style="opacity:1" fill="#3f3f3f" d="M 237.5,77.5 C 256.512,77.1671 275.512,77.5004 294.5,78.5C 294.145,79.5223 293.478,80.189 292.5,80.5C 274.356,78.8374 256.023,77.8374 237.5,77.5 Z"/></g>
<g><path style="opacity:1" fill="#2f4f9b" d="M 319.5,86.5 C 314.737,88.1196 311.403,86.4529 309.5,81.5C 309.076,77.2968 309.576,73.2968 311,69.5C 313.377,72.2136 316.044,74.5469 319,76.5C 319.483,77.448 319.649,78.448 319.5,79.5C 312.908,80.4284 312.908,81.4284 319.5,82.5C 319.5,83.8333 319.5,85.1667 319.5,86.5 Z"/></g>
<g><path style="opacity:1" fill="#285390" d="M 351.5,76.5 C 351.5,77.5 351.5,78.5 351.5,79.5C 350.448,79.3505 349.448,79.5172 348.5,80C 352.201,84.2664 356.201,84.4331 360.5,80.5C 362.596,81.6197 362.93,83.1197 361.5,85C 359.277,85.5662 357.277,86.3995 355.5,87.5C 353.146,88.6843 350.813,88.5176 348.5,87C 347.359,86.2588 347.359,85.4255 348.5,84.5C 346.579,83.359 344.579,83.1923 342.5,84C 341.663,85.0113 341.33,86.1779 341.5,87.5C 344.95,86.7564 346.616,88.0897 346.5,91.5C 344.167,91.5 341.833,91.5 339.5,91.5C 339.5,90.5 339.5,89.5 339.5,88.5C 335.364,88.3724 332.031,89.8724 329.5,93C 326.632,94.383 323.632,95.2163 320.5,95.5C 320.5,95.1667 320.5,94.8333 320.5,94.5C 330.97,88.7642 341.303,82.7642 351.5,76.5 Z"/></g>
<g><path style="opacity:1" fill="#274c9d" d="M 355.5,87.5 C 359.422,87.155 363.255,86.4884 367,85.5C 367.399,85.7284 367.565,86.0618 367.5,86.5C 367.5,87.5 367.5,88.5 367.5,89.5C 364.978,89.1281 362.978,89.9614 361.5,92C 356.747,91.9764 352.08,92.1431 347.5,92.5C 347.5,93.5 347.5,94.5 347.5,95.5C 344.833,95.5 342.167,95.5 339.5,95.5C 339.5,96.5 339.5,97.5 339.5,98.5C 338.167,98.5 336.833,98.5 335.5,98.5C 335.215,100.288 335.548,101.955 336.5,103.5C 341.56,100.823 346.56,98.1568 351.5,95.5C 355.266,95.4762 355.433,96.1429 352,97.5C 351.517,98.448 351.351,99.448 351.5,100.5C 346.412,103.571 341.078,106.238 335.5,108.5C 335.5,109.5 335.5,110.5 335.5,111.5C 335.167,111.5 334.833,111.5 334.5,111.5C 328.496,113.779 322.329,115.779 316,117.5C 311.165,115.13 308.332,111.13 307.5,105.5C 310.091,100.024 314.424,96.6903 320.5,95.5C 323.632,95.2163 326.632,94.383 329.5,93C 332.031,89.8724 335.364,88.3724 339.5,88.5C 339.5,89.5 339.5,90.5 339.5,91.5C 341.833,91.5 344.167,91.5 346.5,91.5C 346.616,88.0897 344.95,86.7564 341.5,87.5C 341.33,86.1779 341.663,85.0113 342.5,84C 344.579,83.1923 346.579,83.359 348.5,84.5C 347.359,85.4255 347.359,86.2588 348.5,87C 350.813,88.5176 353.146,88.6843 355.5,87.5 Z"/></g>
<g><path style="opacity:1" fill="#275191" d="M 367.5,89.5 C 362.722,93.9401 357.388,97.6068 351.5,100.5C 351.351,99.448 351.517,98.448 352,97.5C 355.433,96.1429 355.266,95.4762 351.5,95.5C 346.56,98.1568 341.56,100.823 336.5,103.5C 335.548,101.955 335.215,100.288 335.5,98.5C 336.833,98.5 338.167,98.5 339.5,98.5C 339.5,97.5 339.5,96.5 339.5,95.5C 342.167,95.5 344.833,95.5 347.5,95.5C 347.5,94.5 347.5,93.5 347.5,92.5C 352.08,92.1431 356.747,91.9764 361.5,92C 362.978,89.9614 364.978,89.1281 367.5,89.5 Z"/></g>
<g><path style="opacity:1" fill="#364573" d="M 351.5,100.5 C 346.552,104.648 341.218,108.314 335.5,111.5C 335.5,110.5 335.5,109.5 335.5,108.5C 341.078,106.238 346.412,103.571 351.5,100.5 Z"/></g>
<g><path style="opacity:1" fill="#35447c" d="M 307.5,105.5 C 308.332,111.13 311.165,115.13 316,117.5C 322.329,115.779 328.496,113.779 334.5,111.5C 328.366,117.268 321.032,119.768 312.5,119C 306.814,115.873 305.148,111.373 307.5,105.5 Z"/></g>
</svg>
