<?xml version="1.0" standalone="no"?>
<!DOCTYPE svg PUBLIC "-//W3C//DTD SVG 20010904//EN"
 "http://www.w3.org/TR/2001/REC-SVG-20010904/DTD/svg10.dtd">
<svg version="1.0" xmlns="http://www.w3.org/2000/svg"
 width="278.000000pt" height="181.000000pt" viewBox="0 0 278.000000 181.000000"
 preserveAspectRatio="xMidYMid meet">

<g transform="translate(0.000000,181.000000) scale(0.100000,-0.100000)"
fill="#000000" stroke="none">
<path d="M1526 1165 c-141 -17 -266 -40 -391 -71 -129 -33 -285 -83 -285 -92
0 -4 9 -13 20 -20 29 -18 26 -52 -4 -52 -13 0 -26 7 -30 15 -6 17 -26 21 -26
5 0 -5 18 -22 40 -36 33 -22 40 -32 40 -59 0 -41 -19 -57 -67 -57 -41 0 -77
31 -66 57 7 20 53 20 53 0 0 -8 7 -15 15 -15 27 0 16 19 -25 45 -32 20 -40 31
-40 55 l0 30 -42 -21 c-73 -37 -157 -101 -179 -135 -48 -78 -1 -138 136 -176
72 -19 104 -22 310 -22 188 1 254 4 363 22 192 31 349 68 490 115 121 40 122
41 93 53 -34 14 -48 59 -38 121 8 48 29 67 71 67 39 0 66 -18 66 -45 0 -24
-45 -26 -54 -3 -12 30 -26 2 -26 -52 0 -41 4 -54 15 -54 8 0 15 9 15 20 0 11
-4 20 -10 20 -5 0 -10 7 -10 15 0 10 11 15 35 15 34 0 35 -1 35 -40 0 -22 3
-40 6 -40 20 0 147 87 182 124 97 105 23 181 -208 216 -89 14 -352 11 -484 -5z
m-59 -187 c7 -6 13 -19 13 -29 0 -23 -45 -27 -54 -4 -7 18 -26 20 -26 3 0 -7
18 -23 40 -36 34 -19 40 -28 40 -55 0 -44 -15 -57 -65 -57 -46 0 -65 13 -65
47 0 18 6 23 25 23 16 0 25 -6 25 -15 0 -8 7 -15 15 -15 27 0 16 19 -26 45
-35 23 -40 30 -37 58 5 51 72 71 115 35z m-413 -75 c20 -111 21 -105 -11 -101
-26 3 -29 7 -39 73 l-10 70 -8 -59 c-10 -79 -14 -86 -43 -86 -24 0 -25 2 -20
43 3 23 11 66 17 95 l12 52 43 0 43 0 16 -87z m142 25 l8 -63 9 63 9 62 44 0
44 0 0 -95 c0 -95 0 -95 -25 -95 -24 0 -25 3 -26 63 -1 61 -1 61 -11 22 -5
-22 -11 -50 -14 -62 -3 -16 -12 -23 -29 -23 -17 0 -26 7 -29 23 -3 12 -9 40
-14 62 -10 39 -10 39 -11 -22 -1 -60 -2 -63 -26 -63 -25 0 -25 0 -25 95 l0 95
44 0 44 0 8 -62z m374 -13 c0 -60 3 -75 15 -75 12 0 15 15 15 75 0 73 1 75 25
75 25 0 25 -1 25 -83 0 -51 -5 -88 -12 -95 -7 -7 -30 -12 -53 -12 -23 0 -46 5
-53 12 -7 7 -12 44 -12 95 0 82 0 83 25 83 24 0 25 -2 25 -75z m214 28 l15
-48 0 48 c1 46 2 47 31 47 l31 0 -3 -92 -3 -93 -34 0 c-32 0 -35 3 -52 50
l-17 50 -1 -53 c-1 -52 -2 -53 -28 -50 -28 3 -28 3 -29 88 0 47 1 88 3 93 2 4
20 7 38 7 32 0 35 -3 49 -47z"/>
</g>
</svg>
