<?xml version="1.0" standalone="no"?>
<!DOCTYPE svg PUBLIC "-//W3C//DTD SVG 20010904//EN"
 "http://www.w3.org/TR/2001/REC-SVG-20010904/DTD/svg10.dtd">
<svg version="1.0" xmlns="http://www.w3.org/2000/svg"
 width="314.000000pt" height="160.000000pt" viewBox="0 0 314.000000 160.000000"
 preserveAspectRatio="xMidYMid meet">

<g transform="translate(0.000000,160.000000) scale(0.100000,-0.100000)"
fill="#000000" stroke="none">
<path d="M817 1522 c-15 -16 -17 -52 -17 -305 0 -313 1 -317 59 -317 59 0 61
9 61 316 0 237 -2 283 -16 302 -19 27 -64 29 -87 4z"/>
<path d="M2156 1518 c-14 -19 -16 -65 -16 -304 0 -259 1 -282 18 -297 23 -21
66 -22 86 -1 14 13 16 55 16 303 0 266 -1 289 -18 304 -26 24 -68 21 -86 -5z"/>
<path d="M492 1334 c-21 -14 -22 -21 -22 -164 0 -137 2 -150 19 -160 28 -14
57 -12 75 6 13 13 16 42 16 159 0 137 -1 145 -22 159 -12 9 -27 16 -33 16 -6
0 -21 -7 -33 -16z"/>
<path d="M1161 1333 c-21 -17 -22 -25 -19 -168 l3 -150 27 -9 c18 -7 35 -6 53
2 l25 12 0 149 c0 144 -1 151 -22 165 -29 20 -41 20 -67 -1z"/>
<path d="M1831 1333 c-21 -17 -22 -25 -19 -168 l3 -150 27 -9 c18 -7 35 -6 53
2 l25 12 0 149 c0 144 -1 151 -22 165 -29 20 -41 20 -67 -1z"/>
<path d="M2501 1333 c-21 -17 -22 -25 -19 -168 l3 -150 27 -9 c18 -7 35 -6 53
2 l25 12 0 149 c0 144 -1 151 -22 165 -29 20 -41 20 -67 -1z"/>
<path d="M140 1181 c-5 -11 -10 -49 -10 -84 0 -49 4 -68 18 -80 25 -23 58 -21
82 3 26 26 29 140 4 164 -22 23 -81 21 -94 -3z"/>
<path d="M1486 1184 c-24 -24 -22 -145 2 -167 24 -22 65 -21 85 1 20 21 24
131 7 163 -13 24 -72 26 -94 3z"/>
<path d="M2826 1184 c-25 -24 -22 -138 4 -164 25 -25 62 -26 83 -2 20 21 24
131 7 163 -13 24 -72 26 -94 3z"/>
<path d="M555 706 c-97 -31 -145 -76 -165 -157 -22 -86 24 -175 114 -221 45
-23 151 -35 210 -24 35 7 36 8 36 55 l0 48 -73 -5 c-85 -5 -128 11 -152 58
-23 45 -19 76 18 117 29 31 41 37 90 41 31 2 70 0 86 -6 l31 -11 0 53 0 53
-46 7 c-65 9 -103 7 -149 -8z"/>
<path d="M1306 705 c-62 -22 -91 -57 -91 -110 0 -59 31 -90 121 -119 74 -24
96 -45 75 -70 -19 -22 -74 -30 -142 -19 l-59 10 0 -43 c0 -50 9 -54 115 -54
93 0 142 15 182 55 26 26 33 41 33 73 0 65 -29 90 -155 134 -32 11 -40 19 -40
38 0 31 47 44 115 32 l50 -9 0 42 0 42 -46 7 c-70 9 -115 7 -158 -9z"/>
<path d="M1838 706 c-106 -28 -168 -103 -168 -200 0 -121 107 -206 259 -206
93 0 101 5 101 60 l0 47 -72 -5 c-86 -6 -128 12 -153 65 -15 31 -15 40 -3 71
26 69 122 103 202 72 26 -9 26 -9 26 44 l0 53 -46 7 c-63 8 -91 7 -146 -8z"/>
<path d="M2338 706 c-54 -14 -106 -52 -140 -98 -18 -27 -23 -46 -23 -100 0
-58 4 -72 30 -109 18 -26 50 -53 80 -68 42 -22 62 -26 140 -26 73 0 98 4 131
22 181 96 151 318 -52 379 -57 17 -103 17 -166 0z m137 -96 c66 -25 96 -105
59 -158 -51 -74 -190 -68 -230 9 -48 93 64 190 171 149z"/>
<path d="M920 510 l0 -200 60 0 60 0 0 200 0 200 -60 0 -60 0 0 -200z"/>
<path d="M2832 330 c0 -14 2 -19 5 -12 2 6 2 18 0 25 -3 6 -5 1 -5 -13z"/>
<path d="M2860 330 c0 -11 2 -20 4 -20 2 0 6 9 9 20 3 11 1 20 -4 20 -5 0 -9
-9 -9 -20z"/>
</g>
</svg>
