<?xml version="1.0" encoding="UTF-8"?>
<!DOCTYPE svg PUBLIC "-//W3C//DTD SVG 1.1//EN" "http://www.w3.org/Graphics/SVG/1.1/DTD/svg11.dtd">
<svg xmlns="http://www.w3.org/2000/svg" version="1.1" width="136px" height="55px" style="shape-rendering:geometricPrecision; text-rendering:geometricPrecision; image-rendering:optimizeQuality; fill-rule:evenodd; clip-rule:evenodd" xmlns:xlink="http://www.w3.org/1999/xlink">
<g><path style="opacity:0.494" fill="#c94d56" d="M 4.5,10.5 C 4.5,10.1667 4.5,9.83333 4.5,9.5C 14.5,9.5 24.5,9.5 34.5,9.5C 34.5,10.8333 34.5,12.1667 34.5,13.5C 33.596,12.791 33.2627,11.791 33.5,10.5C 31.5,10.5 29.5,10.5 27.5,10.5C 27.5,11.5 27.5,12.5 27.5,13.5C 26.8333,12.8333 26.1667,12.1667 25.5,11.5C 25.1667,11.5 24.8333,11.5 24.5,11.5C 18.021,10.5093 11.3543,10.176 4.5,10.5 Z"/></g>
<g><path style="opacity:0.604" fill="#4d4d4d" d="M 132.5,13.5 C 131.698,12.0484 131.198,10.3817 131,8.5C 130.667,9.83333 130.333,11.1667 130,12.5C 129.333,11.1667 128.667,11.1667 128,12.5C 127.96,9.40919 127.127,7.40919 125.5,6.5C 132.167,4.5 134.5,6.83333 132.5,13.5 Z"/></g>
<g><path style="opacity:1" fill="#d52234" d="M 4.5,10.5 C 11.3543,10.176 18.021,10.5093 24.5,11.5C 24.1667,12.1667 23.8333,12.8333 23.5,13.5C 20.4279,12.7431 17.4279,13.2431 14.5,15C 11.1832,15.4983 7.8499,15.665 4.5,15.5C 4.5,13.8333 4.5,12.1667 4.5,10.5 Z"/></g>
<g><path style="opacity:1" fill="#d52737" d="M 106.5,11.5 C 107.338,11.8417 107.672,12.5084 107.5,13.5C 107.979,16.0644 108.645,18.5644 109.5,21C 107.009,21.6259 107.009,22.4593 109.5,23.5C 109.376,24.1067 109.043,24.44 108.5,24.5C 107.609,23.8902 106.609,23.5569 105.5,23.5C 103.222,19.5344 100.888,15.5344 98.5,11.5C 101.199,10.2706 103.865,10.2706 106.5,11.5 Z"/></g>
<g><path style="opacity:0.51" fill="#6a6969" d="M 125.5,6.5 C 127.127,7.40919 127.96,9.40919 128,12.5C 128.667,11.1667 129.333,11.1667 130,12.5C 130.333,11.1667 130.667,9.83333 131,8.5C 131.198,10.3817 131.698,12.0484 132.5,13.5C 131.751,15.2462 130.417,16.2462 128.5,16.5C 126.235,15.5684 124.235,14.2351 122.5,12.5C 123.11,11.609 123.443,10.609 123.5,9.5C 123.427,7.97306 124.094,6.97306 125.5,6.5 Z"/></g>
<g><path style="opacity:1" fill="#d52a39" d="M 4.5,10.5 C 4.5,12.1667 4.5,13.8333 4.5,15.5C 7.8499,15.665 11.1832,15.4983 14.5,15C 17.4279,13.2431 20.4279,12.7431 23.5,13.5C 21.7526,17.3299 19.7526,20.9966 17.5,24.5C 17.7271,22.0672 16.7271,20.4006 14.5,19.5C 14.4142,18.5041 14.7476,17.6708 15.5,17C 11.5138,16.5012 7.51383,16.3345 3.5,16.5C 3.20528,14.2646 3.53862,12.2646 4.5,10.5 Z"/></g>
<g><path style="opacity:0.357" fill="#da8489" d="M 34.5,9.5 C 36.4445,14.9989 38.7778,20.3322 41.5,25.5C 41.7148,27.1788 41.0481,28.1788 39.5,28.5C 38.0294,23.4214 36.3627,18.4214 34.5,13.5C 34.5,12.1667 34.5,10.8333 34.5,9.5 Z"/></g>
<g><path style="opacity:1" fill="#d7565a" d="M 92.5,11.5 C 88.4454,11.1758 84.4454,11.5091 80.5,12.5C 83.3399,13.1056 85.6732,14.4389 87.5,16.5C 85.901,16.2322 84.5676,16.5655 83.5,17.5C 82.7101,18.7942 81.7101,19.9609 80.5,21C 84.1667,21.6667 87.8333,21.6667 91.5,21C 90.944,20.6174 90.6107,20.1174 90.5,19.5C 91.9953,19.4148 92.9953,20.0815 93.5,21.5C 88.8804,22.4933 84.2137,22.8266 79.5,22.5C 79.2317,19.8806 79.565,17.3806 80.5,15C 80,14.5 79.5,14 79,13.5C 77.2962,15.3734 75.4628,17.0401 73.5,18.5C 73.5,17.8333 73.5,17.1667 73.5,16.5C 74.1667,16.5 74.5,16.1667 74.5,15.5C 79.4182,9.30184 85.4182,7.96851 92.5,11.5 Z"/></g>
<g><path style="opacity:0.999" fill="#d73f46" d="M 115.5,9.5 C 118.167,9.5 120.833,9.5 123.5,9.5C 123.443,10.609 123.11,11.609 122.5,12.5C 120.527,16.457 118.194,20.1237 115.5,23.5C 115.291,22.0783 114.791,20.745 114,19.5C 112.841,20.566 112.008,20.2327 111.5,18.5C 112.576,15.3516 113.909,12.3516 115.5,9.5 Z"/></g>
<g><path style="opacity:0.765" fill="#d7757a" d="M 74.5,15.5 C 74.1667,15.5 73.8333,15.5 73.5,15.5C 73.5,13.8333 73.5,12.1667 73.5,10.5C 69.6494,9.97086 66.1494,10.6375 63,12.5C 61.5993,10.8078 59.7659,10.1412 57.5,10.5C 56.506,20.3194 56.1726,30.3194 56.5,40.5C 58.8333,40.5 61.1667,40.5 63.5,40.5C 63.1755,33.3134 63.5088,26.3134 64.5,19.5C 64.5,26.8333 64.5,34.1667 64.5,41.5C 61.5,41.5 58.5,41.5 55.5,41.5C 55.6665,32.1607 55.4998,22.8274 55,13.5C 50.9235,23.9022 46.7568,34.2355 42.5,44.5C 41.6618,44.8417 41.3284,45.5084 41.5,46.5C 41.1307,48.4412 40.464,50.2745 39.5,52C 36.4459,52.8214 33.4459,52.6548 30.5,51.5C 31.6609,48.6416 32.9943,45.975 34.5,43.5C 34.1667,46.1667 33.8333,48.8333 33.5,51.5C 35.1667,51.5 36.8333,51.5 38.5,51.5C 43.6968,37.91 48.6968,24.2434 53.5,10.5C 51.5,10.5 49.5,10.5 47.5,10.5C 51.1445,9.5585 54.9778,8.89183 59,8.5C 64.4706,9.31825 69.9706,9.65158 75.5,9.5C 75.1667,11.5 74.8333,13.5 74.5,15.5 Z"/></g>
<g><path style="opacity:1" fill="#d96a6c" d="M 93.5,11.5 C 95.1667,12.8333 96.8333,14.1667 98.5,15.5C 98.5,16.1667 98.5,16.8333 98.5,17.5C 95.7638,16.4274 94.0971,14.4274 93.5,11.5 Z"/></g>
<g><path style="opacity:0.2" fill="#dd9398" d="M 115.5,9.5 C 113.909,12.3516 112.576,15.3516 111.5,18.5C 110.167,18.5 109.5,17.8333 109.5,16.5C 111.281,13.9088 113.281,11.5755 115.5,9.5 Z"/></g>
<g><path style="opacity:0.698" fill="#d5777d" d="M 73.5,15.5 C 73.5,15.8333 73.5,16.1667 73.5,16.5C 69.8453,15.925 66.8453,16.925 64.5,19.5C 64.5,18.8333 64.5,18.1667 64.5,17.5C 64.6107,16.8826 64.944,16.3826 65.5,16C 68.146,15.5026 70.8127,15.3359 73.5,15.5 Z"/></g>
<g><path style="opacity:0.298" fill="#d47f83" d="M 4.5,9.5 C 4.5,9.83333 4.5,10.1667 4.5,10.5C 3.53862,12.2646 3.20528,14.2646 3.5,16.5C 7.51383,16.3345 11.5138,16.5012 15.5,17C 14.7476,17.6708 14.4142,18.5041 14.5,19.5C 14.1667,19.5 13.8333,19.5 13.5,19.5C 10.3157,17.5864 6.64903,16.9197 2.5,17.5C 1.96438,14.3019 2.63105,11.6353 4.5,9.5 Z"/></g>
<g><path style="opacity:0.192" fill="#d77e82" d="M 106.5,11.5 C 103.865,10.2706 101.199,10.2706 98.5,11.5C 100.888,15.5344 103.222,19.5344 105.5,23.5C 105.737,24.791 105.404,25.791 104.5,26.5C 103.786,22.0666 101.786,18.4 98.5,15.5C 97.7577,13.5742 96.7577,11.7409 95.5,10C 97.3333,9.83333 99.1667,9.66667 101,9.5C 103.295,9.5465 105.129,10.2132 106.5,11.5 Z"/></g>
<g><path style="opacity:1" fill="#d62235" d="M 57.5,10.5 C 59.7659,10.1412 61.5993,10.8078 63,12.5C 66.1494,10.6375 69.6494,9.97086 73.5,10.5C 73.5,12.1667 73.5,13.8333 73.5,15.5C 70.8127,15.3359 68.146,15.5026 65.5,16C 64.944,16.3826 64.6107,16.8826 64.5,17.5C 63.8826,17.6107 63.3826,17.944 63,18.5C 62.5004,25.4921 62.3337,32.4921 62.5,39.5C 60.8333,39.5 59.1667,39.5 57.5,39.5C 57.5,29.8333 57.5,20.1667 57.5,10.5 Z"/></g>
<g><path style="opacity:1" fill="#d52435" d="M 92.5,11.5 C 92.8333,11.5 93.1667,11.5 93.5,11.5C 94.0971,14.4274 95.7638,16.4274 98.5,17.5C 98.5,18.8333 98.5,20.1667 98.5,21.5C 98.5,23.1667 98.5,24.8333 98.5,26.5C 91.7743,26.7951 85.1077,26.4617 78.5,25.5C 77.3554,26.7757 77.3554,28.109 78.5,29.5C 77.624,30.2508 76.624,30.7508 75.5,31C 76.7736,31.9772 76.7736,32.8106 75.5,33.5C 75.1583,32.6618 74.4916,32.3284 73.5,32.5C 73.5,27.8333 73.5,23.1667 73.5,18.5C 75.4628,17.0401 77.2962,15.3734 79,13.5C 79.5,14 80,14.5 80.5,15C 79.565,17.3806 79.2317,19.8806 79.5,22.5C 84.2137,22.8266 88.8804,22.4933 93.5,21.5C 92.9953,20.0815 91.9953,19.4148 90.5,19.5C 90.5,19.1667 90.5,18.8333 90.5,18.5C 90.0269,17.0937 89.0269,16.427 87.5,16.5C 85.6732,14.4389 83.3399,13.1056 80.5,12.5C 84.4454,11.5091 88.4454,11.1758 92.5,11.5 Z M 83.5,17.5 C 85.9029,17.448 88.2362,17.7814 90.5,18.5C 90.5,18.8333 90.5,19.1667 90.5,19.5C 90.6107,20.1174 90.944,20.6174 91.5,21C 87.8333,21.6667 84.1667,21.6667 80.5,21C 81.7101,19.9609 82.7101,18.7942 83.5,17.5 Z"/></g>
<g><path style="opacity:0.42" fill="#d87d85" d="M 83.5,17.5 C 84.5676,16.5655 85.901,16.2322 87.5,16.5C 89.0269,16.427 90.0269,17.0937 90.5,18.5C 88.2362,17.7814 85.9029,17.448 83.5,17.5 Z"/></g>
<g><path style="opacity:1" fill="#d42d3a" d="M 107.5,13.5 C 108.906,13.9731 109.573,14.9731 109.5,16.5C 109.5,17.8333 110.167,18.5 111.5,18.5C 112.008,20.2327 112.841,20.566 114,19.5C 114.791,20.745 115.291,22.0783 115.5,23.5C 115.833,24.8333 116.167,26.1667 116.5,27.5C 116.427,29.0269 117.094,30.0269 118.5,30.5C 118.427,32.0269 119.094,33.0269 120.5,33.5C 120.427,35.0269 121.094,36.0269 122.5,36.5C 123.338,36.8417 123.672,37.5084 123.5,38.5C 122.848,39.7251 121.681,40.3917 120,40.5C 118.833,40.3333 117.667,40.1667 116.5,40C 115.126,37.4171 113.626,34.9171 112,32.5C 111.023,31.2264 110.189,31.2264 109.5,32.5C 109.5,32.8333 109.5,33.1667 109.5,33.5C 108.12,33.0377 107.453,32.0377 107.5,30.5C 108.156,28.5466 108.489,26.5466 108.5,24.5C 109.043,24.44 109.376,24.1067 109.5,23.5C 107.009,22.4593 107.009,21.6259 109.5,21C 108.645,18.5644 107.979,16.0644 107.5,13.5 Z"/></g>
<g><path style="opacity:1" fill="#d52737" d="M 34.5,13.5 C 36.3627,18.4214 38.0294,23.4214 39.5,28.5C 38.5028,28.4701 37.8361,28.9701 37.5,30C 37.8919,31.0105 38.5585,31.5105 39.5,31.5C 38.2889,32.7202 38.2889,33.8869 39.5,35C 38.8681,37.4152 37.8681,39.5819 36.5,41.5C 35.7873,32.3673 33.1206,24.034 28.5,16.5C 27.596,15.791 27.2627,14.791 27.5,13.5C 27.5,12.5 27.5,11.5 27.5,10.5C 29.5,10.5 31.5,10.5 33.5,10.5C 33.2627,11.791 33.596,12.791 34.5,13.5 Z"/></g>
<g><path style="opacity:1" fill="#d84c51" d="M 47.5,10.5 C 47.0756,14.0339 46.4089,17.5339 45.5,21C 45.5852,22.1074 45.9186,23.1074 46.5,24C 44.8399,25.2644 43.1732,25.7644 41.5,25.5C 42.7376,20.1049 44.7376,15.1049 47.5,10.5 Z"/></g>
<g><path style="opacity:0.69" fill="#dc7e80" d="M 73.5,18.5 C 73.5,23.1667 73.5,27.8333 73.5,32.5C 70.8333,27.8333 70.8333,23.1667 73.5,18.5 Z"/></g>
<g><path style="opacity:1" fill="#d4303c" d="M 13.5,19.5 C 13.8333,19.5 14.1667,19.5 14.5,19.5C 16.7271,20.4006 17.7271,22.0672 17.5,24.5C 16.6955,27.4422 15.3622,30.1089 13.5,32.5C 12.828,31.7326 11.9947,31.0659 11,30.5C 10.1841,31.8228 9.01739,32.4894 7.5,32.5C 7.5,32.1667 7.5,31.8333 7.5,31.5C 8.99222,27.1822 10.9922,23.1822 13.5,19.5 Z"/></g>
<g><path style="opacity:0.42" fill="#d68c8e" d="M 98.5,17.5 C 100.217,20.8448 100.884,24.5115 100.5,28.5C 93.4163,27.8745 86.7496,28.5411 80.5,30.5C 79.596,29.791 79.2627,28.791 79.5,27.5C 86.1667,27.5 92.8333,27.5 99.5,27.5C 99.7947,25.2646 99.4614,23.2646 98.5,21.5C 98.5,20.1667 98.5,18.8333 98.5,17.5 Z"/></g>
<g><path style="opacity:1" fill="#d52435" d="M 47.5,10.5 C 49.5,10.5 51.5,10.5 53.5,10.5C 48.6968,24.2434 43.6968,37.91 38.5,51.5C 36.8333,51.5 35.1667,51.5 33.5,51.5C 33.8333,48.8333 34.1667,46.1667 34.5,43.5C 34.5,43.1667 34.5,42.8333 34.5,42.5C 35.1667,42.1667 35.8333,41.8333 36.5,41.5C 37.8681,39.5819 38.8681,37.4152 39.5,35C 38.2889,33.8869 38.2889,32.7202 39.5,31.5C 38.5585,31.5105 37.8919,31.0105 37.5,30C 37.8361,28.9701 38.5028,28.4701 39.5,28.5C 41.0481,28.1788 41.7148,27.1788 41.5,25.5C 43.1732,25.7644 44.8399,25.2644 46.5,24C 45.9186,23.1074 45.5852,22.1074 45.5,21C 46.4089,17.5339 47.0756,14.0339 47.5,10.5 Z"/></g>
<g><path style="opacity:0.738" fill="#d33b4a" d="M 57.5,10.5 C 57.5,20.1667 57.5,29.8333 57.5,39.5C 59.1667,39.5 60.8333,39.5 62.5,39.5C 62.3337,32.4921 62.5004,25.4921 63,18.5C 63.3826,17.944 63.8826,17.6107 64.5,17.5C 64.5,18.1667 64.5,18.8333 64.5,19.5C 63.5088,26.3134 63.1755,33.3134 63.5,40.5C 61.1667,40.5 58.8333,40.5 56.5,40.5C 56.1726,30.3194 56.506,20.3194 57.5,10.5 Z"/></g>
<g><path style="opacity:0.506" fill="#d9868a" d="M 116.5,27.5 C 117.906,27.9731 118.573,28.9731 118.5,30.5C 117.094,30.0269 116.427,29.0269 116.5,27.5 Z"/></g>
<g><path style="opacity:1" fill="#d6343e" d="M 105.5,23.5 C 106.609,23.5569 107.609,23.8902 108.5,24.5C 108.489,26.5466 108.156,28.5466 107.5,30.5C 107.453,32.0377 108.12,33.0377 109.5,33.5C 107.914,35.6705 106.58,38.0038 105.5,40.5C 102.753,40.8134 100.086,40.48 97.5,39.5C 100.621,35.5906 102.955,31.2572 104.5,26.5C 105.404,25.791 105.737,24.791 105.5,23.5 Z"/></g>
<g><path style="opacity:1" fill="#d52335" d="M 13.5,32.5 C 16.6843,34.4136 20.351,35.0803 24.5,34.5C 24.5,36.5 24.5,38.5 24.5,40.5C 17.8333,40.5 11.1667,40.5 4.5,40.5C 5.50143,37.8284 6.50143,35.1618 7.5,32.5C 9.01739,32.4894 10.1841,31.8228 11,30.5C 11.9947,31.0659 12.828,31.7326 13.5,32.5 Z"/></g>
<g><path style="opacity:0.008" fill="#f9f9f9" d="M 16.5,31.5 C 19.1667,32.1667 21.8333,32.8333 24.5,33.5C 21.4281,33.8174 18.4281,33.4841 15.5,32.5C 15.6236,31.8933 15.9569,31.56 16.5,31.5 Z"/></g>
<g><path style="opacity:0.753" fill="#d97578" d="M 28.5,16.5 C 33.1206,24.034 35.7873,32.3673 36.5,41.5C 35.8333,41.8333 35.1667,42.1667 34.5,42.5C 35.3897,40.2181 35.5564,37.8848 35,35.5C 32.2538,29.3462 30.0871,23.0128 28.5,16.5 Z"/></g>
<g><path style="opacity:0.431" fill="#da9195" d="M 118.5,30.5 C 119.906,30.9731 120.573,31.9731 120.5,33.5C 119.094,33.0269 118.427,32.0269 118.5,30.5 Z"/></g>
<g><path style="opacity:0.671" fill="#d88288" d="M 24.5,11.5 C 24.8333,11.5 25.1667,11.5 25.5,11.5C 23.0521,18.3973 20.0521,25.064 16.5,31.5C 15.9569,31.56 15.6236,31.8933 15.5,32.5C 18.4281,33.4841 21.4281,33.8174 24.5,33.5C 26.0481,33.8212 26.7148,34.8212 26.5,36.5C 25.8333,35.8333 25.1667,35.1667 24.5,34.5C 20.351,35.0803 16.6843,34.4136 13.5,32.5C 15.3622,30.1089 16.6955,27.4422 17.5,24.5C 19.7526,20.9966 21.7526,17.3299 23.5,13.5C 23.8333,12.8333 24.1667,12.1667 24.5,11.5 Z"/></g>
<g><path style="opacity:0.659" fill="#d36c72" d="M 73.5,32.5 C 74.4916,32.3284 75.1583,32.6618 75.5,33.5C 76.2341,34.7079 76.5674,36.0413 76.5,37.5C 74.7497,36.3406 73.7497,34.674 73.5,32.5 Z"/></g>
<g><path style="opacity:0.396" fill="#dd878b" d="M 80.5,30.5 C 84.4655,34.4856 88.4655,34.4856 92.5,30.5C 94.3964,31.2745 96.063,32.2745 97.5,33.5C 95.9397,33.4809 94.4397,33.1476 93,32.5C 89.3053,34.5246 85.472,34.858 81.5,33.5C 80.8728,32.5832 80.5394,31.5832 80.5,30.5 Z"/></g>
<g><path style="opacity:0.259" fill="#d68187" d="M 109.5,32.5 C 110.189,31.2264 111.023,31.2264 112,32.5C 113.626,34.9171 115.126,37.4171 116.5,40C 117.667,40.1667 118.833,40.3333 120,40.5C 121.681,40.3917 122.848,39.7251 123.5,38.5C 124.478,38.811 125.145,39.4777 125.5,40.5C 122.216,41.657 118.882,41.8236 115.5,41C 113.601,38.0123 111.601,35.1789 109.5,32.5 Z"/></g>
<g><path style="opacity:1" fill="#d52837" d="M 98.5,21.5 C 99.4614,23.2646 99.7947,25.2646 99.5,27.5C 92.8333,27.5 86.1667,27.5 79.5,27.5C 79.2627,28.791 79.596,29.791 80.5,30.5C 80.5394,31.5832 80.8728,32.5832 81.5,33.5C 85.472,34.858 89.3053,34.5246 93,32.5C 94.4397,33.1476 95.9397,33.4809 97.5,33.5C 97.7035,35.3904 97.0368,36.8904 95.5,38C 90.2636,39.339 84.9302,39.839 79.5,39.5C 79.0269,38.0937 78.0269,37.427 76.5,37.5C 76.5674,36.0413 76.2341,34.7079 75.5,33.5C 76.7736,32.8106 76.7736,31.9772 75.5,31C 76.624,30.7508 77.624,30.2508 78.5,29.5C 77.3554,28.109 77.3554,26.7757 78.5,25.5C 85.1077,26.4617 91.7743,26.7951 98.5,26.5C 98.5,24.8333 98.5,23.1667 98.5,21.5 Z"/></g>
<g><path style="opacity:0.408" fill="#e3a2a6" d="M 120.5,33.5 C 121.906,33.9731 122.573,34.9731 122.5,36.5C 121.094,36.0269 120.427,35.0269 120.5,33.5 Z"/></g>
<g><path style="opacity:0.902" fill="#d87679" d="M 104.5,26.5 C 102.955,31.2572 100.621,35.5906 97.5,39.5C 100.086,40.48 102.753,40.8134 105.5,40.5C 102.024,41.6433 98.3575,41.8099 94.5,41C 95.6956,40.3457 95.6956,39.8457 94.5,39.5C 89.3634,42.126 84.3634,42.126 79.5,39.5C 84.9302,39.839 90.2636,39.339 95.5,38C 97.0368,36.8904 97.7035,35.3904 97.5,33.5C 98.1174,33.6107 98.6174,33.944 99,34.5C 100.306,31.3793 102.14,28.7126 104.5,26.5 Z"/></g>
<g><path style="opacity:0.396" fill="#da939c" d="M 76.5,37.5 C 78.0269,37.427 79.0269,38.0937 79.5,39.5C 77.9731,39.573 76.9731,38.9063 76.5,37.5 Z"/></g>
<g><path style="opacity:0.988" fill="#dc8487" d="M 7.5,31.5 C 7.5,31.8333 7.5,32.1667 7.5,32.5C 6.50143,35.1618 5.50143,37.8284 4.5,40.5C 3.83333,40.5 3.5,40.8333 3.5,41.5C 2.42654,40.7494 2.25988,39.7494 3,38.5C 4.02594,35.7613 5.52594,33.428 7.5,31.5 Z"/></g>
<g><path style="opacity:0.396" fill="#c95159" d="M 24.5,34.5 C 25.1667,35.1667 25.8333,35.8333 26.5,36.5C 26.5,38.1667 26.5,39.8333 26.5,41.5C 18.8333,41.5 11.1667,41.5 3.5,41.5C 3.5,40.8333 3.83333,40.5 4.5,40.5C 11.1667,40.5 17.8333,40.5 24.5,40.5C 24.5,38.5 24.5,36.5 24.5,34.5 Z"/></g>
<g><path style="opacity:0.627" fill="#676566" d="M 90.5,46.5 C 88.2971,47.0516 87.4638,48.3849 88,50.5C 89.0875,48.0684 89.5875,48.4017 89.5,51.5C 91.099,51.2322 92.4324,51.5655 93.5,52.5C 88.266,51.6359 82.9326,51.6359 77.5,52.5C 75.0521,51.5269 72.3854,51.1936 69.5,51.5C 69.0254,48.9179 69.6921,46.9179 71.5,45.5C 74.4791,46.6437 77.4791,46.3104 80.5,44.5C 81.6473,44.8178 82.4806,45.4844 83,46.5C 85.4177,45.7902 87.9177,45.7902 90.5,46.5 Z"/></g>
<g><path style="opacity:0.784" fill="#504e4f" d="M 42.5,44.5 C 45.3609,44.3416 48.0276,45.0083 50.5,46.5C 53.8106,44.822 55.8106,45.822 56.5,49.5C 55.1266,49.3433 53.7932,49.51 52.5,50C 53.756,50.4169 54.4226,51.2502 54.5,52.5C 53.5,52.5 52.5,52.5 51.5,52.5C 50.791,51.596 49.791,51.2627 48.5,51.5C 48.1667,47.5 47.8333,47.5 47.5,51.5C 46.1667,51.5 44.8333,51.5 43.5,51.5C 43.7845,49.5853 43.4511,47.9187 42.5,46.5C 42.1667,46.5 41.8333,46.5 41.5,46.5C 41.3284,45.5084 41.6618,44.8417 42.5,44.5 Z"/></g>
<g><path style="opacity:0.6" fill="#959595" d="M 56.5,49.5 C 56.573,51.0269 55.9063,52.0269 54.5,52.5C 54.4226,51.2502 53.756,50.4169 52.5,50C 53.7932,49.51 55.1266,49.3433 56.5,49.5 Z"/></g>
<g><path style="opacity:0.275" fill="#595959" d="M 113.5,44.5 C 116.48,45.025 119.313,45.025 122,44.5C 123.662,44.3875 124.829,45.0542 125.5,46.5C 119.054,48.2462 119.054,49.5795 125.5,50.5C 122.454,53.2661 119.621,52.9328 117,49.5C 116.517,50.448 116.351,51.448 116.5,52.5C 115.5,52.5 114.5,52.5 113.5,52.5C 113.5,49.8333 113.5,47.1667 113.5,44.5 Z"/></g>
<g><path style="opacity:0.684" fill="#656464" d="M 58.5,44.5 C 61.1667,44.5 63.8333,44.5 66.5,44.5C 66.5,47.1667 66.5,49.8333 66.5,52.5C 65.5,52.5 64.5,52.5 63.5,52.5C 63.1667,48.5 62.8333,48.5 62.5,52.5C 60.8333,52.5 59.1667,52.5 57.5,52.5C 57.4013,49.7628 57.7347,47.0961 58.5,44.5 Z"/></g>
<g><path style="opacity:0.937" fill="#626061" d="M 93.5,52.5 C 92.4324,51.5655 91.099,51.2322 89.5,51.5C 89.5875,48.4017 89.0875,48.0684 88,50.5C 87.4638,48.3849 88.2971,47.0516 90.5,46.5C 92.5184,45.3775 94.5184,45.3775 96.5,46.5C 97.9411,45.696 99.4411,45.0294 101,44.5C 101.945,44.9054 102.612,45.572 103,46.5C 109.424,43.7345 112.591,45.7345 112.5,52.5C 106.167,52.5 99.8333,52.5 93.5,52.5 Z"/></g>
<g><path style="opacity:0.353" fill="#979796" d="M 42.5,46.5 C 43.4511,47.9187 43.7845,49.5853 43.5,51.5C 44.8333,51.5 46.1667,51.5 47.5,51.5C 47.8333,47.5 48.1667,47.5 48.5,51.5C 49.791,51.2627 50.791,51.596 51.5,52.5C 48.5,52.5 45.5,52.5 42.5,52.5C 42.5,50.5 42.5,48.5 42.5,46.5 Z"/></g>
<g><path style="opacity:0.314" fill="#8f8f8f" d="M 71.5,45.5 C 69.6921,46.9179 69.0254,48.9179 69.5,51.5C 72.3854,51.1936 75.0521,51.5269 77.5,52.5C 74.5,52.5 71.5,52.5 68.5,52.5C 68.5,49.8333 68.5,47.1667 68.5,44.5C 69.791,44.2627 70.791,44.596 71.5,45.5 Z"/></g>
</svg>
