<svg width="47" height="53" viewBox="0 0 47 53" fill="none" xmlns="http://www.w3.org/2000/svg">
<g clip-path="url(#clip0_1_505)">
<path d="M45.3999 49.2652H43.3404V2.7904C43.3404 1.43947 42.2339 0.34436 40.869 0.34436H6.26993C4.90502 0.34436 3.79857 1.43947 3.79857 2.7904V49.2652H1.7391C1.05669 49.2652 0.503418 49.8128 0.503418 50.4882V52.5266H46.6355V50.4882C46.6355 49.8128 46.0823 49.2652 45.3999 49.2652ZM13.684 8.09016C13.684 7.41475 14.2373 6.86714 14.9197 6.86714H19.0386C19.721 6.86714 20.2743 7.41475 20.2743 8.09016V12.1669C20.2743 12.8423 19.721 13.3899 19.0386 13.3899H14.9197C14.2373 13.3899 13.684 12.8423 13.684 12.1669V8.09016ZM13.684 17.8743C13.684 17.1989 14.2373 16.6513 14.9197 16.6513H19.0386C19.721 16.6513 20.2743 17.1989 20.2743 17.8743V21.9511C20.2743 22.6265 19.721 23.1741 19.0386 23.1741H14.9197C14.2373 23.1741 13.684 22.6265 13.684 21.9511V17.8743ZM19.0386 32.9583H14.9197C14.2373 32.9583 13.684 32.4106 13.684 31.7352V27.6585C13.684 26.9831 14.2373 26.4355 14.9197 26.4355H19.0386C19.721 26.4355 20.2743 26.9831 20.2743 27.6585V31.7352C20.2743 32.4106 19.721 32.9583 19.0386 32.9583ZM26.8646 49.2652H20.2743V40.7041C20.2743 40.0286 20.8276 39.481 21.51 39.481H25.6289C26.3114 39.481 26.8646 40.0286 26.8646 40.7041V49.2652ZM33.4549 31.7352C33.4549 32.4106 32.9017 32.9583 32.2192 32.9583H28.1003C27.4179 32.9583 26.8646 32.4106 26.8646 31.7352V27.6585C26.8646 26.9831 27.4179 26.4355 28.1003 26.4355H32.2192C32.9017 26.4355 33.4549 26.9831 33.4549 27.6585V31.7352ZM33.4549 21.9511C33.4549 22.6265 32.9017 23.1741 32.2192 23.1741H28.1003C27.4179 23.1741 26.8646 22.6265 26.8646 21.9511V17.8743C26.8646 17.1989 27.4179 16.6513 28.1003 16.6513H32.2192C32.9017 16.6513 33.4549 17.1989 33.4549 17.8743V21.9511ZM33.4549 12.1669C33.4549 12.8423 32.9017 13.3899 32.2192 13.3899H28.1003C27.4179 13.3899 26.8646 12.8423 26.8646 12.1669V8.09016C26.8646 7.41475 27.4179 6.86714 28.1003 6.86714H32.2192C32.9017 6.86714 33.4549 7.41475 33.4549 8.09016V12.1669Z" fill="white"/>
</g>
<defs>
<clipPath id="clip0_1_505">
<rect width="46.1321" height="52.1822" fill="white" transform="translate(0.503418 0.34436)"/>
</clipPath>
</defs>
</svg>
