<svg width="18" height="18" viewBox="0 0 18 18" fill="none" xmlns="http://www.w3.org/2000/svg">
<path d="M9 0C7.21997 0 5.47991 0.52784 3.99987 1.51677C2.51983 2.50571 1.36628 3.91131 0.685088 5.55585C0.00389941 7.20038 -0.17433 9.00998 0.172937 10.7558C0.520203 12.5016 1.37737 14.1053 2.63604 15.364C3.89471 16.6226 5.49836 17.4798 7.24419 17.8271C8.99002 18.1743 10.7996 17.9961 12.4442 17.3149C14.0887 16.6337 15.4943 15.4802 16.4832 14.0001C17.4722 12.5201 18 10.78 18 9C17.9972 6.61391 17.0481 4.32635 15.3609 2.63913C13.6736 0.951914 11.3861 0.00280222 9 0ZM16.1974 5.64706H12.6521C12.2663 4.04681 11.5626 2.54049 10.5829 1.21765C11.7991 1.46757 12.9401 1.99821 13.9149 2.76724C14.8896 3.53627 15.6712 4.52242 16.1974 5.64706ZM16.9412 9C16.9418 9.77715 16.8279 10.5501 16.6032 11.2941H12.87C13.1218 9.77507 13.1218 8.22493 12.87 6.70588H16.6032C16.8279 7.44985 16.9418 8.22285 16.9412 9ZM9 16.9412C8.978 16.9413 8.95623 16.9367 8.93614 16.9277C8.91605 16.9188 8.89812 16.9056 8.88353 16.8891C7.74706 15.6653 6.91236 14.0938 6.44118 12.3529H11.5588C11.0876 14.0938 10.2529 15.6653 9.11647 16.8891C9.10189 16.9056 9.08395 16.9188 9.06387 16.9277C9.04378 16.9367 9.022 16.9413 9 16.9412ZM6.20383 11.2941C5.93207 9.77678 5.93207 8.22322 6.20383 6.70588H11.7962C12.0679 8.22322 12.0679 9.77678 11.7962 11.2941H6.20383ZM1.05883 9C1.05823 8.22285 1.1721 7.44985 1.39677 6.70588H5.13C4.87822 8.22493 4.87822 9.77507 5.13 11.2941H1.39677C1.1721 10.5501 1.05823 9.77715 1.05883 9ZM9 1.05882C9.022 1.0587 9.04378 1.06328 9.06387 1.07226C9.08395 1.08124 9.10189 1.09441 9.11647 1.11088C10.2529 2.33471 11.0876 3.90618 11.5588 5.64706H6.44118C6.91236 3.90618 7.74706 2.33471 8.88353 1.11088C8.89812 1.09441 8.91605 1.08124 8.93614 1.07226C8.95623 1.06328 8.978 1.0587 9 1.05882ZM7.41706 1.21765C6.4374 2.54049 5.73375 4.04681 5.34794 5.64706H1.80265C2.32876 4.52242 3.11036 3.53627 4.08513 2.76724C5.0599 1.99821 6.20087 1.46757 7.41706 1.21765ZM1.80265 12.3529H5.34794C5.73375 13.9532 6.4374 15.4595 7.41706 16.7823C6.20087 16.5324 5.0599 16.0018 4.08513 15.2328C3.11036 14.4637 2.32876 13.4776 1.80265 12.3529ZM10.5829 16.7823C11.5626 15.4595 12.2663 13.9532 12.6521 12.3529H16.1974C15.6712 13.4776 14.8896 14.4637 13.9149 15.2328C12.9401 16.0018 11.7991 16.5324 10.5829 16.7823Z" fill="#E1E3E4"/>
</svg>
