<svg width="24" height="24" viewBox="0 0 24 24" fill="none" xmlns="http://www.w3.org/2000/svg">
<path d="M11.4846 22.545C11.6296 22.68 11.8146 22.75 11.9996 22.75C12.1846 22.75 12.3696 22.68 12.5146 22.545C12.8496 22.225 20.7496 14.685 20.7496 10C20.7496 5.175 16.8246 1.25 11.9996 1.25C7.17463 1.25 3.24963 5.175 3.24963 10C3.24963 14.685 11.1496 22.225 11.4846 22.545ZM11.9996 2.75C15.9996 2.75 19.2496 6 19.2496 10C19.2496 13.115 14.4196 18.55 11.9996 20.955C9.57963 18.55 4.74963 13.12 4.74963 10C4.74963 6 7.99963 2.75 11.9996 2.75Z" fill="#3E4073"/>
<path d="M15.7496 10C15.7496 7.93 14.0696 6.25 11.9996 6.25C9.92963 6.25 8.24963 7.93 8.24963 10C8.24963 12.07 9.92963 13.75 11.9996 13.75C14.0696 13.75 15.7496 12.07 15.7496 10ZM9.74963 10C9.74963 8.76 10.7596 7.75 11.9996 7.75C13.2396 7.75 14.2496 8.76 14.2496 10C14.2496 11.24 13.2396 12.25 11.9996 12.25C10.7596 12.25 9.74963 11.24 9.74963 10Z" fill="black"/>
</svg>
