<svg width="94" height="64" viewBox="0 0 94 64" fill="none" xmlns="http://www.w3.org/2000/svg">
<g clip-path="url(#clip0_1_603)">
<path d="M55.274 16.2006H52.9256V10.4453C52.9256 8.22774 51.098 6.42993 48.8437 6.42993H47.2163V40.0961H52.9256V21.814H55.274C59.6119 21.814 63.1375 25.2852 63.1375 29.5495V40.0932H68.8468V29.5495C68.8468 22.1875 62.7579 16.1948 55.2711 16.1948L55.274 16.2006Z" fill="#1B499C"/>
<path d="M94.0001 40.1017H88.2909V29.5551C88.2909 25.2879 84.7623 21.8197 80.4274 21.8197H78.0818V40.1017H72.3726V16.2004H80.4274C87.9112 16.2004 94.0031 22.1902 94.0031 29.5551V40.1017H94.0001Z" fill="#1B499C"/>
<path d="M26.0537 12.3501V13.2823C19.8589 14.7443 14.9854 19.5413 13.4992 25.6324H12.5604C11.0742 19.5384 6.19486 14.7414 0 13.2794V12.3559C6.19486 10.8939 11.0742 6.094 12.5604 0H13.4992C14.9854 6.094 19.8618 10.8881 26.0537 12.3501Z" fill="#FBB043"/>
<path d="M40.8007 42.5132C40.0944 41.6071 39.2733 40.7936 38.3551 40.0988C41.5511 37.6583 43.6141 33.8397 43.6141 29.5522V16.2004H30.0413C22.5545 16.2004 16.4685 22.1873 16.4685 29.5522C16.4685 33.8397 18.5315 37.6583 21.7275 40.0988C24.0289 41.8589 26.91 42.904 30.0413 42.904C32.2868 42.904 34.3115 43.8333 35.7418 45.3214C37.0808 46.711 37.9019 48.5811 37.9019 50.6424C37.9019 54.9067 34.3762 58.3779 30.0384 58.3779C25.7005 58.3779 22.1719 54.9096 22.1719 50.6424C22.1719 48.5811 22.993 46.711 24.3379 45.3214C22.4839 44.6729 20.7799 43.7117 19.282 42.5103C17.5103 44.7626 16.4656 47.5882 16.4656 50.6424C16.4656 58.0015 22.5516 63.9942 30.0384 63.9942C37.5252 63.9942 43.6112 58.0015 43.6112 50.6424C43.6112 47.5882 42.5664 44.7626 40.7948 42.5103L40.8007 42.5132ZM30.0443 21.8168C34.3792 21.8168 37.9078 25.285 37.9078 29.5522C37.9078 33.8195 34.3821 37.2877 30.0443 37.2877C25.7064 37.2877 22.1778 33.8195 22.1778 29.5522C22.1778 25.285 25.7093 21.8168 30.0443 21.8168Z" fill="#1B499C"/>
</g>
<defs>
<clipPath id="clip0_1_603">
<rect width="94" height="64" fill="white"/>
</clipPath>
</defs>
</svg>
