<svg width="24" height="24" viewBox="0 0 24 24" fill="none" xmlns="http://www.w3.org/2000/svg">
<g clip-path="url(#clip0_1_373)">
<path d="M21.7496 3H2.24965C1.00891 3 -0.000366211 4.00928 -0.000366211 5.25002V18.75C-0.000366211 19.9907 1.00891 21 2.24965 21H21.7496C22.9904 21 23.9996 19.9907 23.9996 18.75V5.25002C23.9996 4.00928 22.9904 3 21.7496 3ZM21.7496 4.49999C21.8515 4.49999 21.9485 4.52114 22.0371 4.55806L11.9996 13.2576L1.96214 4.55806C2.05076 4.52119 2.1477 4.49999 2.2496 4.49999H21.7496ZM21.7496 19.5H2.24965C1.83584 19.5 1.49963 19.1638 1.49963 18.75V6.14282L11.5082 14.8169C11.6495 14.9392 11.8246 15 11.9996 15C12.1747 15 12.3497 14.9392 12.4911 14.8169L22.4996 6.14282V18.75C22.4996 19.1638 22.1634 19.5 21.7496 19.5Z" fill="#3E4073"/>
</g>
<defs>
<clipPath id="clip0_1_373">
<rect width="24" height="24" fill="white" transform="translate(-0.000366211)"/>
</clipPath>
</defs>
</svg>
