<svg width="22" height="22" viewBox="0 0 22 22" fill="none" xmlns="http://www.w3.org/2000/svg">
<g clip-path="url(#clip0_1_400)">
<path d="M21.7992 11.4861L16.2992 16.9861C16.2358 17.0518 16.16 17.1041 16.0761 17.1402C15.9922 17.1762 15.902 17.1952 15.8107 17.1959C15.7194 17.1967 15.6289 17.1793 15.5444 17.1448C15.4599 17.1102 15.3832 17.0592 15.3186 16.9946C15.2541 16.9301 15.203 16.8533 15.1684 16.7688C15.1339 16.6843 15.1165 16.5938 15.1173 16.5025C15.1181 16.4112 15.137 16.321 15.1731 16.2371C15.2091 16.1532 15.2615 16.0774 15.3271 16.014L19.6536 11.6875H0.6875C0.505164 11.6875 0.330295 11.6151 0.201364 11.4862C0.0724328 11.3572 0 11.1824 0 11C0 10.8177 0.0724328 10.6428 0.201364 10.5139C0.330295 10.385 0.505164 10.3125 0.6875 10.3125H19.6536L15.3271 5.98609C15.2615 5.92267 15.2091 5.84681 15.1731 5.76293C15.137 5.67905 15.1181 5.58884 15.1173 5.49755C15.1165 5.40627 15.1339 5.31574 15.1684 5.23124C15.203 5.14675 15.2541 5.06999 15.3186 5.00544C15.3832 4.94089 15.4599 4.88984 15.5444 4.85527C15.6289 4.8207 15.7194 4.80331 15.8107 4.8041C15.902 4.8049 15.9922 4.82386 16.0761 4.85989C16.16 4.89592 16.2358 4.9483 16.2992 5.01396L21.7992 10.514C21.9281 10.6429 22.0005 10.8177 22.0005 11C22.0005 11.1823 21.9281 11.3572 21.7992 11.4861Z" fill="#ECF6FA"/>
</g>
<defs>
<clipPath id="clip0_1_400">
<rect width="22" height="22" fill="white"/>
</clipPath>
</defs>
</svg>
