<svg width="70" height="70" viewBox="0 0 70 70" fill="none" xmlns="http://www.w3.org/2000/svg">
<path d="M11.596 11.5961V17.3941H57.9802V11.5961M11.596 20.2931L8.69702 34.7882V40.5862H11.596V57.9803H37.6871C37.5422 56.9946 37.4552 55.98 37.4552 54.9363C37.4552 51.3995 38.5569 47.9207 40.5862 45.0217V40.5862H45.0506C47.9497 38.6439 51.3415 37.5712 54.8203 37.5712C56.8786 37.5712 58.9369 37.9481 60.8793 38.6728V34.7882L57.9802 20.2931M17.3941 40.5862H34.7881V52.1822H17.3941M52.1822 43.4852V52.1822H43.4852V57.9803H52.1822V66.6773H57.9802V57.9803H66.6773V52.1822H57.9802V43.4852" fill="white"/>
</svg>
